<?xml version="1.0" standalone="no"?>
<!DOCTYPE svg PUBLIC "-//W3C//DTD SVG 1.1//EN" "http://www.w3.org/Graphics/SVG/1.1/DTD/svg11.dtd" >
<svg xmlns="http://www.w3.org/2000/svg">
<defs>
  <font id="w3ds-icons" horiz-adv-x="1000">
    <font-face font-family="w3ds-icons"
      units-per-em="1000" ascent="1000"
      descent="0" />
    <missing-glyph horiz-adv-x="0" />
    <glyph glyph-name="add"
      unicode="&#xEA01;"
      horiz-adv-x="1000" d="M531.25 531.25V781.25H468.75V531.25H218.75V468.75H468.75V218.75H531.25V468.75H781.25V531.25H531.25z" />
    <glyph glyph-name="add-alt"
      unicode="&#xEA02;"
      horiz-adv-x="1000" d="M500 875A375 375 0 1 0 125 500A375 375 0 0 0 500 875M500 937.5A437.5 437.5 0 1 1 937.5 500A437.5 437.5 0 0 1 500 937.5zM687.5 531.25H531.25V687.5H468.75V531.25H312.5V468.75H468.75V312.5H531.25V468.75H687.5V531.25z" />
    <glyph glyph-name="add-comment"
      unicode="&#xEA03;"
      horiz-adv-x="1000" d="M554.375 62.5L500 93.75L625 312.5H812.5A62.5 62.5 0 0 1 875 375V750A62.5 62.5 0 0 1 812.5 812.5H187.5A62.5 62.5 0 0 1 125 750V375A62.5 62.5 0 0 1 187.5 312.5H468.75V250H187.5A125 125 0 0 0 62.5 375V750A125 125 0 0 0 187.5 875H812.5A125 125 0 0 0 937.5 750V375A125 125 0 0 0 812.5 250H661.25zM531.25 718.75H468.75V593.75H343.75V531.25H468.75V406.25H531.25V531.25H656.25V593.75H531.25V718.75z" />
    <glyph glyph-name="arrow-down"
      unicode="&#xEA04;"
      horiz-adv-x="1000" d="M768.4375 481.5625L531.25 244.6875V937.5H468.75V244.6875L231.5625 481.5624999999999L187.5 437.5L500 125L812.5 437.5L768.4375 481.5625z" />
    <glyph glyph-name="arrow-left"
      unicode="&#xEA05;"
      horiz-adv-x="1000" d="M406.25 187.5L450.3125 231.5625L213.4375 468.75H906.25V531.25H213.4375L450.3125 768.4375L406.25 812.5L93.75 500L406.25 187.5z" />
    <glyph glyph-name="arrow-right"
      unicode="&#xEA06;"
      horiz-adv-x="1000" d="M906.25 500L593.75 812.5L550 768.75L787.5000000000001 531.25H93.75V468.75H787.5L550 231.25L593.75 187.5z" />
    <glyph glyph-name="arrow-up"
      unicode="&#xEA07;"
      horiz-adv-x="1000" d="M500 875L187.5 562.5L231.5625 518.4375L468.75 755.3125V62.5H531.25V755.3125L768.4375 518.4375L812.5 562.5L500 875z" />
    <glyph glyph-name="arrows-horizontal"
      unicode="&#xEA08;"
      horiz-adv-x="1000" d="M356.5625 169.0625L244.6875 281.25H875V343.75H244.6875L356.5625 455.9375L312.5 500L125 312.5L312.5 125L356.5625 169.0625zM875 687.5L687.5 875L643.4375 830.9375L755.3125 718.75H125V656.25H755.3125L643.4375000000001 544.0625L687.5 500L875 687.5z" />
    <glyph glyph-name="arrows-vertical"
      unicode="&#xEA09;"
      horiz-adv-x="1000" d="M830.9375 356.5625L718.75 244.6875V875H656.25V244.6875L544.0625 356.5624999999999L500 312.5L687.5 125L875 312.5L830.9375 356.5625zM312.5 875L125 687.5L169.0625 643.4375L281.25 755.3125V125H343.75V755.3125L455.9375 643.4375L500 687.5L312.5 875z" />
    <glyph glyph-name="attachment"
      unicode="&#xEA0A;"
      horiz-adv-x="1000" d="M846.875 440.625L440.6250000000001 846.875A203.4375 203.4375 0 0 1 153.1250000000001 559.375L246.8750000000001 465.6250000000001L290.9375000000001 509.6875000000001L197.1875000000001 603.4375A140.625 140.625 0 1 0 395.9375000000001 802.1875000000001L802.1875 395.9375A140.625 140.625 0 1 0 603.4375000000001 197.1875000000001L411.8750000000001 388.75A78.125 78.125 0 0 0 522.5 500L621.5625 400.9375L665.625 445S565.0000000000001 545.9375 564.0625 546.25A140.3125 140.3125 0 0 1 365.9375 347.8125L559.3750000000001 153.125A203.4375 203.4375 0 0 1 846.875 440.6249999999999z" />
    <glyph glyph-name="back-to-top"
      unicode="&#xEA0B;"
      horiz-adv-x="1000" d="M500 593.75L187.5 281.25L231.5625 237.1875L500 505.3125L768.4375 237.1875L812.5 281.25L500 593.75zM125 781.25H875V718.75H125z" />
    <glyph glyph-name="bookmark"
      unicode="&#xEA0C;"
      horiz-adv-x="1000" d="M750 875V164.0625L528.125 276.25L499.9999999999999 290.3125L471.8749999999999 276.25L250 164.0625V875H750M750 937.5H250A62.5 62.5 0 0 1 187.5 875V62.5L500 218.75L812.5 62.5V875A62.5 62.5 0 0 1 750 937.5z" />
    <glyph glyph-name="box"
      unicode="&#xEA0D;"
      horiz-adv-x="1000" d="M625 343.75H375A62.5 62.5 0 0 0 312.5 406.25V468.75A62.5 62.5 0 0 0 375 531.25H625A62.5 62.5 0 0 0 687.5 468.75V406.25A62.5 62.5 0 0 0 625 343.75zM375 468.75V406.25H625V468.75zM875 875H125A62.5 62.5 0 0 1 62.5 812.5V687.5A62.5 62.5 0 0 1 125 625V125A62.5 62.5 0 0 1 187.5 62.5H812.5A62.5 62.5 0 0 1 875 125V625A62.5 62.5 0 0 1 937.5 687.5V812.5A62.5 62.5 0 0 1 875 875zM812.5 125H187.5V625H812.5zM875 687.5H125V812.5H875V687.5z" />
    <glyph glyph-name="bullhorn"
      unicode="&#xEA0E;"
      horiz-adv-x="1000" d="M812.5 812.5V744.6875L176.25 629.0625A62.5 62.5 0 0 1 125 566.5625V430.9375A62.5 62.5 0 0 1 176.25 368.4375L250 357.4999999999999V250A62.5 62.5 0 0 1 312.5 187.5H562.5A62.5 62.5 0 0 1 625 250V289.375L812.5 255.3125V187.5H875V812.5zM562.5 250H312.5V345.9375L562.5 300.625zM187.5 432.1875V567.8125L812.5 681.2499999999999V318.7499999999999z" />
    <glyph glyph-name="calculator"
      unicode="&#xEA0F;"
      horiz-adv-x="1000" d="M812.5 875V125H187.5V875H812.5M812.5 937.5H187.5A62.5 62.5 0 0 1 125 875V125A62.5 62.5 0 0 1 187.5 62.5H812.5A62.5 62.5 0 0 1 875 125V875A62.5 62.5 0 0 1 812.5 937.5zM281.25 281.25H343.75V218.75H281.25zM656.25 281.25H718.75V218.75H656.25zM281.25 437.5H343.75V375H281.25zM656.25 437.5H718.75V375H656.25zM281.25 593.75H343.75V531.25H281.25zM468.75 281.25H531.25V218.75H468.75zM468.75 437.5H531.25V375H468.75zM468.75 593.75H531.25V531.25H468.75zM656.25 593.75H718.75V531.25H656.25zM281.25 781.25H718.75V687.5H281.25z" />
    <glyph glyph-name="calendar"
      unicode="&#xEA10;"
      horiz-adv-x="1000" d="M812.5 874.0625H687.5V936.5625H625V874.0625H375V936.5625H312.5V874.0625H187.5A62.5 62.5 0 0 1 125 811.5625V186.5625A62.5 62.5 0 0 1 187.5 124.0625H812.5A62.5 62.5 0 0 1 875 186.5625V811.5625A62.5 62.5 0 0 1 812.5 874.0625zM812.5 186.5625H187.5V624.0625H812.5zM812.5 686.5625H187.5V811.5625H312.5V749.0625H375V811.5625H625V749.0625H687.5V811.5625H812.5z" />
    <glyph glyph-name="calendar-add"
      unicode="&#xEA11;"
      horiz-adv-x="1000" d="M812.5 875H687.5V937.5H625V875H375V937.5H312.5V875H187.5C153.125 875 125 846.875 125 812.5V187.5C125 153.125 153.125 125 187.5 125H812.5C846.875 125 875 153.125 875 187.5V812.5C875 846.875 846.875 875 812.5 875zM812.5 187.5H187.5V625H812.5V187.5zM812.5 687.5H187.5V812.5H312.5V750H375V812.5H625V750H687.5V812.5H812.5V687.5zM656.25 437.5H531.25V562.5H468.75V437.5H343.75V375H468.75V250H531.25V375H656.25z" />
    <glyph glyph-name="camera"
      unicode="&#xEA12;"
      horiz-adv-x="1000" d="M906.25 187.5H93.75A31.25 31.25 0 0 0 62.5 218.75V750A31.25 31.25 0 0 0 93.75 781.25H295.625L349.0625000000001 860.9375A31.25 31.25 0 0 0 375 875H625A31.25 31.25 0 0 0 650.9375 860.9375L704.375 781.25H906.25A31.25 31.25 0 0 0 937.5 750V218.75A31.25 31.25 0 0 0 906.25 187.5zM125 250H875V718.75H687.5A31.25 31.25 0 0 0 661.5625 732.8125L608.125 812.5H391.8750000000001L338.4375000000001 732.8125A31.25 31.25 0 0 0 312.5 718.75H125zM500 312.5A187.5 187.5 0 1 0 687.5 500A187.5 187.5 0 0 0 500 312.5zM500 625A125 125 0 1 1 625 500A125 125 0 0 1 500 625z" />
    <glyph glyph-name="caret-down"
      unicode="&#xEA13;"
      horiz-adv-x="1000" d="M718.75 625L500 375L281.25 625H718.75z" />
    <glyph glyph-name="caret-left"
      unicode="&#xEA14;"
      horiz-adv-x="1000" d="M593.75 281.25L343.75 500L593.75 718.75V281.25z" />
    <glyph glyph-name="caret-right"
      unicode="&#xEA15;"
      horiz-adv-x="1000" d="M406.25 718.75L656.25 500L406.25 281.25V718.75z" />
    <glyph glyph-name="caret-sort"
      unicode="&#xEA16;"
      horiz-adv-x="1000" d="M281.25 625L500 875L718.75 625H281.25zM718.75 375L500 125L281.25 375H718.75z" />
    <glyph glyph-name="caret-up"
      unicode="&#xEA17;"
      horiz-adv-x="1000" d="M281.25 375L500 625L718.75 375H281.25z" />
    <glyph glyph-name="chart-area"
      unicode="&#xEA18;"
      horiz-adv-x="1000" d="M834.375 643.75C834.375 656.25 828.125 665.625 815.6249999999999 671.875C799.9999999999999 678.125 781.2499999999999 671.875 771.875 656.25L615.625 340.625L387.5 543.75C371.875 556.25 353.125 562.5 334.375 559.375C315.625 556.25 300 543.75 290.625 528.125L125 218.75V937.5H62.5V125C62.5 90.625 90.625 62.5 125 62.5H937.5V125H834.375V643.75zM346.875 500L575 296.875C590.625 284.375 609.375 278.125 628.1249999999999 281.25C646.875 284.375 662.5 296.875 671.8749999999999 315.625L771.8749999999999 512.5V125H146.8749999999999L346.8749999999999 500z" />
    <glyph glyph-name="chart-bar"
      unicode="&#xEA19;"
      horiz-adv-x="1000" d="M843.75 125V812.5H593.75V125H468.75V562.5H218.75V125H125V937.5H62.5V125A62.5 62.5 0 0 1 125 62.5H937.5V125zM406.25 125H281.25V500H406.25zM781.25 125H656.25V750H781.25z" />
    <glyph glyph-name="chart-line"
      unicode="&#xEA1A;"
      horiz-adv-x="1000" d="M145.9375 125L345.625 500L573.75 297.1874999999999A62.5 62.5 0 0 1 626.875 282.5A62.5 62.5 0 0 1 671.2499999999999 315.9375L843.75 659.375L786.875 687.5L615.3124999999999 343.75L387.1874999999999 546.5625A62.5 62.5 0 0 1 334.6875 562.5A62.5 62.5 0 0 1 290.3125 531.25L125 218.75V937.5H62.5V125A62.5 62.5 0 0 1 125 62.5H937.5V125z" />
    <glyph glyph-name="chat"
      unicode="&#xEA1B;"
      horiz-adv-x="1000" d="M554.375 62.5L500 93.75L625 312.5H812.5A62.5 62.5 0 0 1 875 375V750A62.5 62.5 0 0 1 812.5 812.5H187.5A62.5 62.5 0 0 1 125 750V375A62.5 62.5 0 0 1 187.5 312.5H468.75V250H187.5A125 125 0 0 0 62.5 375V750A125 125 0 0 0 187.5 875H812.5A125 125 0 0 0 937.5 750V375A125 125 0 0 0 812.5 250H661.25zM250 687.5H750V625H250zM250 500H562.5V437.5H250z" />
    <glyph glyph-name="checkbox"
      unicode="&#xEA1C;"
      horiz-adv-x="1000" d="M812.5 875H187.5A62.5 62.5 0 0 1 125 812.5V187.5A62.5 62.5 0 0 1 187.5 125H812.5A62.5 62.5 0 0 1 875 187.5V812.5A62.5 62.5 0 0 1 812.5 875zM187.5 187.5V812.5H812.5V187.5z" />
    <glyph glyph-name="checkbox-checked"
      unicode="&#xEA1D;"
      horiz-adv-x="1000" d="M812.5 875H187.5A62.5 62.5 0 0 1 125 812.5V187.5A62.5 62.5 0 0 1 187.5 125H812.5A62.5 62.5 0 0 1 875 187.5V812.5A62.5 62.5 0 0 1 812.5 875zM187.5 187.5V812.5H812.5V187.5zM437.5 328.125L281.25 483.125L330.9375 531.25L437.5 426.5625L669.0625 656.25L718.75 606.875L437.5 328.125z" />
    <glyph glyph-name="checkmark"
      unicode="&#xEA1E;"
      horiz-adv-x="1000" d="M406.25 337.5L184.375 559.375L140.625 515.625L362.5 293.75L406.25 250L846.875 690.625L803.1250000000001 737.5z" />
    <glyph glyph-name="checkmark-outline"
      unicode="&#xEA1F;"
      horiz-adv-x="1000" d="M500 937.5A437.5 437.5 0 1 1 937.5 500A437.5 437.5 0 0 1 500 937.5zM500 125A375 375 0 1 0 875 500A375 375 0 0 0 500 125zM437.5 328.125L281.25 483.125L330.9375 532.1875L437.5 426.5625L669.0625 656.25L718.75 606.875L437.5 328.125z" />
    <glyph glyph-name="chevron-down"
      unicode="&#xEA20;"
      horiz-adv-x="1000" d="M500 312.5L187.5 625L231.25 668.75L500 400L768.75 668.75L812.5 625z" />
    <glyph glyph-name="chevron-left"
      unicode="&#xEA21;"
      horiz-adv-x="1000" d="M312.5 500L625 812.5L668.75 768.75L400 500L668.75 231.25L625 187.5z" />
    <glyph glyph-name="chevron-outline-down"
      unicode="&#xEA22;"
      horiz-adv-x="1000" d="M500 937.5C259.375 937.5 62.5 740.625 62.5 500S259.375 62.5 500 62.5S937.5 259.375 937.5 500S740.625 937.5 500 937.5zM500 125C293.75 125 125 293.75 125 500S293.75 875 500 875S875 706.25 875 500S706.25 125 500 125zM281.25 556.25L325 600L500 425L675 600L718.75 556.25L500 337.5z" />
    <glyph glyph-name="chevron-outline-left"
      unicode="&#xEA23;"
      horiz-adv-x="1000" d="M500 937.5C259.375 937.5 62.5 740.625 62.5 500S259.375 62.5 500 62.5S937.5 259.375 937.5 500S740.625 937.5 500 937.5zM500 125C293.75 125 125 293.75 125 500S293.75 875 500 875S875 706.25 875 500S706.25 125 500 125zM337.5 500L556.25 718.75L600 675L425 500L600 325L556.25 281.25z" />
    <glyph glyph-name="chevron-outline-right"
      unicode="&#xEA24;"
      horiz-adv-x="1000" d="M500 937.5C259.375 937.5 62.5 740.625 62.5 500S259.375 62.5 500 62.5S937.5 259.375 937.5 500S740.625 937.5 500 937.5zM500 125C293.75 125 125 293.75 125 500S293.75 875 500 875S875 706.25 875 500S706.25 125 500 125zM443.75 281.25L400 325L575 500L400 675L443.75 718.75L662.5 500z" />
    <glyph glyph-name="chevron-outline-up"
      unicode="&#xEA25;"
      horiz-adv-x="1000" d="M500 937.5C259.375 937.5 62.5 740.625 62.5 500S259.375 62.5 500 62.5S937.5 259.375 937.5 500S740.625 937.5 500 937.5zM500 125C293.75 125 125 293.75 125 500S293.75 875 500 875S875 706.25 875 500S706.25 125 500 125zM500 662.5L718.75 443.75L675 400L500 575L325 400L281.25 443.75z" />
    <glyph glyph-name="chevron-right"
      unicode="&#xEA26;"
      horiz-adv-x="1000" d="M687.5 500L375 187.5L331.25 231.25L600 500L331.25 768.75L375 812.5z" />
    <glyph glyph-name="chevron-up"
      unicode="&#xEA27;"
      horiz-adv-x="1000" d="M500 687.5L812.5 375L768.75 331.25L500 600L231.25 331.25L187.5 375z" />
    <glyph glyph-name="close"
      unicode="&#xEA28;"
      horiz-adv-x="1000" d="M750 706.25L706.25 750L500 543.75L293.75 750L250 706.25L456.25 500L250 293.75L293.75 250L500 456.25L706.25 250L750 293.75L543.75 500L750 706.25z" />
    <glyph glyph-name="close-outline"
      unicode="&#xEA29;"
      horiz-adv-x="1000" d="M500 937.5C256.25 937.5 62.5 743.75 62.5 500S256.25 62.5 500 62.5S937.5 256.25 937.5 500S743.75 937.5 500 937.5zM500 125C293.75 125 125 293.75 125 500S293.75 875 500 875S875 706.25 875 500S706.25 125 500 125zM668.75 281.25L500 450L331.25 281.25L281.25 331.25L450 500.0000000000001L281.25 668.75L331.25 718.75L500 550L668.75 718.75L718.75 668.75L550 500L718.75 331.25z" />
    <glyph glyph-name="cloud"
      unicode="&#xEA2A;"
      horiz-adv-x="1000" d="M500 781.25A239.375 239.375 0 0 0 547.1875 776.5625A250 250 0 0 0 745.625 578.4375L753.75 536.25L795.9375000000001 528.75A171.875 171.875 0 0 0 764.6875000000001 187.5H234.375A171.875 171.875 0 0 0 203.125 528.75L245 536.25L253.125 578.4375A250 250 0 0 0 500 781.25M500 843.75A312.5 312.5 0 0 1 192.8125 590A234.375 234.375 0 0 1 234.0625 125H765.3125000000001A234.375 234.375 0 0 1 806.5625000000001 590A312.5 312.5 0 0 1 558.4375 838.125A320.9375 320.9375 0 0 1 500 843.75z" />
    <glyph glyph-name="cloud-download"
      unicode="&#xEA2B;"
      horiz-adv-x="1000" d="M734.375 312.5H718.75V375H734.375A140.625 140.625 0 0 1 745.625 656.25H718.75L715.625 681.875A218.75 218.75 0 0 1 281.875 681.875L281.25 656.25H254.3750000000001A140.625 140.625 0 0 1 265.625 375H281.25V312.5H265.625A203.125 203.125 0 0 0 225 714.375A281.25 281.25 0 0 0 775 714.375A203.125 203.125 0 0 0 734.375 312.5zM531.25 182.1875V562.5H468.75V182.1875L387.8125 262.8124999999999L343.75 218.75L500 62.5L656.25 218.75L612.1875 262.8125L531.25 182.1875z" />
    <glyph glyph-name="cloud-upload"
      unicode="&#xEA2C;"
      horiz-adv-x="1000" d="M343.75 437.5L387.8125 393.4375L468.75 474.0625V93.75H531.25V474.0625L612.1875 393.4375000000001L656.25 437.5L500 593.75L343.75 437.5zM734.375 312.5H718.75V375H734.375A140.625 140.625 0 0 1 745.625 656.25H718.75L715.625 681.875A218.75 218.75 0 0 1 281.875 681.875L281.25 656.25H254.3750000000001A140.625 140.625 0 0 1 265.625 375H281.25V312.5H265.625A203.125 203.125 0 0 0 225 714.375A281.25 281.25 0 0 0 775 714.375A203.125 203.125 0 0 0 734.375 312.5z" />
    <glyph glyph-name="code"
      unicode="&#xEA2D;"
      horiz-adv-x="1000" d="M968.75 500L750 281.25L705.9375 325.3125L880.3125 500L705.9375000000001 674.6875L750 718.75L968.75 500zM31.25 500L250 718.75L294.0625 674.6875L119.6875 500L294.0625 325.3125L250 281.25L31.25 500zM388.09375 203.625L551.21875 812.5L611.5937499999999 796.3125L448.4375 187.5z" />
    <glyph glyph-name="copy"
      unicode="&#xEA2E;"
      horiz-adv-x="1000" d="M875 687.5V125H312.5V687.5H875M875 750H312.5A62.5 62.5 0 0 1 250 687.5V125A62.5 62.5 0 0 1 312.5 62.5H875A62.5 62.5 0 0 1 937.5 125V687.5A62.5 62.5 0 0 1 875 750zM125 437.5H62.5V875A62.5 62.5 0 0 0 125 937.5H562.5V875H125z" />
    <glyph glyph-name="currency"
      unicode="&#xEA2F;"
      horiz-adv-x="1000" d="M500 62.5C259.375 62.5 62.5 259.375 62.5 500S259.375 937.5 500 937.5S937.5 740.625 937.5 500S740.625 62.5 500 62.5zM500 875C293.75 875 125 706.25 125 500S293.75 125 500 125S875 293.75 875 500S706.25 875 500 875zM481.25 275C446.875 278.1250000000001 418.75 284.375 396.875 296.875C375 309.375 356.25 325 340.625 346.875L384.375 390.625C400 375 412.5 359.375 428.125 350C443.75 340.625 462.4999999999999 334.375 481.2499999999999 331.2499999999999V474.9999999999999L468.7499999999999 478.1249999999999C446.875 481.25 431.25 487.4999999999999 415.625 493.7499999999999S390.625 509.3749999999999 381.25 521.875C371.875 531.25 365.625 543.7499999999999 362.5 559.3749999999999C359.375 571.8749999999999 356.25 587.4999999999999 356.25 600C356.25 634.3749999999999 368.75 662.5 390.625 684.375C412.5 706.25 443.75 718.75 484.375 721.875V787.5H531.25V721.875C559.375 718.75 581.25 712.5 603.125 700S640.625 675 656.25 656.25L609.375 615.625C600 628.125 587.5 637.5 575 646.875C562.5 656.25 543.75 659.375 528.125 662.5V531.25L543.75 528.125C565.6249999999999 525 581.2499999999999 518.75 596.8749999999999 512.5S621.875 496.8749999999999 634.3749999999999 484.375C643.7499999999999 475 649.9999999999999 462.5 653.125 446.875C656.25 434.3750000000001 659.3749999999999 418.7500000000001 659.3749999999999 403.1250000000001C659.3749999999999 368.75 646.875 337.5 624.9999999999999 315.625C603.1249999999999 293.7500000000001 571.8749999999999 278.1250000000001 528.1249999999999 275V209.375H474.9999999999999V275zM418.75 603.125C418.75 584.375 425 571.875 434.375 562.5C443.7500000000001 553.125 459.3750000000001 543.75 484.375 540.625V665.625C440.625 659.375 418.75 640.625 418.75 603.125zM596.875 403.125C596.875 421.875 590.6250000000001 437.5 581.25 446.8749999999999C571.875 456.2499999999999 553.1250000000001 462.4999999999999 531.25 468.7499999999999V334.3749999999999C553.125 337.4999999999999 568.75 343.7499999999999 581.25 356.2499999999999C590.6250000000001 368.7499999999998 596.875 384.3749999999998 596.875 403.1249999999999z" />
    <glyph glyph-name="cut"
      unicode="&#xEA30;"
      horiz-adv-x="1000" d="M828.125 386.5625L632.5 500L828.125 613.4375A156.25 156.25 0 0 1 790.3125 900.9375A162.1875 162.1875 0 0 1 750 906.25A156.25 156.25 0 0 1 614.6875 670.9375A156.25 156.25 0 0 1 689.3750000000001 605.3125L570.0000000000001 536.25L125 793.75L93.75 739.375L507.4999999999999 500L93.75 260L125 205.6250000000001L570.0000000000001 463.7500000000001L689.3750000000001 394.6875000000001A156.25 156.25 0 0 1 614.6875 329.0625A156.25 156.25 0 0 1 750 93.75A162.1875 162.1875 0 0 1 790.3125 99.0625A156.25 156.25 0 0 1 828.125 386.5625zM668.75 702.1875A93.75 93.75 0 0 0 703.125 830.9375A93.75 93.75 0 0 0 831.25 796.25A93.75 93.75 0 0 0 796.875 667.8125A93.75 93.75 0 0 0 668.75 702.1875zM831.2499999999999 202.1875A93.75 93.75 0 0 0 703.125 167.5A93.75 93.75 0 0 0 668.75 296.25A93.75 93.75 0 0 0 796.875 330.6250000000001A93.75 93.75 0 0 0 831.25 203.7500000000001z" />
    <glyph glyph-name="dash"
      unicode="&#xEA31;"
      horiz-adv-x="1000" d="M312.5 531.25H687.5V468.75H312.5z" />
    <glyph glyph-name="data-vis-4"
      unicode="&#xEA32;"
      horiz-adv-x="1000" d="M843.75 906.25H156.25A62.5625 62.5625 0 0 1 93.75 843.75V156.25A62.5625 62.5625 0 0 1 156.25 93.75H843.75A62.59375 62.59375 0 0 1 906.25 156.25V843.75A62.5625 62.5625 0 0 1 843.75 906.25zM843.75 718.75H531.25V843.75H843.75zM468.75 156.25H343.75V281.25H468.75zM468.75 343.75H343.75V468.75H468.75zM281.25 343.75H156.25V468.75H281.25zM343.75 531.25V656.25H656.25V531.25zM343.75 718.75V843.75H468.75V718.75zM718.75 656.25H843.75V531.25H718.75zM281.25 843.75V531.25H156.25V843.75zM156.25 281.25H281.25V156.25H156.25zM531.25 156.25V468.75H843.7812499999999L843.8125 156.25z" />
    <glyph glyph-name="diagram"
      unicode="&#xEA33;"
      horiz-adv-x="1000" d="M406.25 62.5A343.75 343.75 0 0 0 406.25 750A31.25 31.25 0 0 0 437.5 718.75V437.5H718.75A31.25 31.25 0 0 0 750 406.25A343.75 343.75 0 0 0 406.25 62.5zM375 685.625A281.25 281.25 0 1 1 685.625 375H437.5A62.5 62.5 0 0 0 375 437.5zM875 562.5H593.75A62.5 62.5 0 0 0 531.25 625V906.25A31.25 31.25 0 0 0 562.5 937.5A343.75 343.75 0 0 0 906.25 593.75A31.25 31.25 0 0 0 875 562.5zM593.75 625H841.875A281.25 281.25 0 0 1 593.75 873.125z" />
    <glyph glyph-name="doc"
      unicode="&#xEA34;"
      horiz-adv-x="1000" d="M562.5 281.25H437.5C403.125 281.25 375 309.375 375 343.75V656.25C375 690.625 403.125 718.75 437.5 718.75H562.5C596.875 718.75 625 690.625 625 656.25V343.75C625 309.375 596.875 281.25 562.5 281.25zM437.5 656.25V343.75H562.5V656.25H437.5zM187.5 281.25H62.5V718.75H187.5C256.25 718.75 312.5 662.5 312.5 593.75V406.25C312.5 337.5 256.25 281.25 187.5 281.25zM125 343.75H187.5C221.875 343.75 250 371.875 250 406.25V593.75C250 628.125 221.875 656.25 187.5 656.25H125V343.75zM937.5 281.25H750C715.625 281.25 687.5 309.375 687.5 343.75V656.25C687.5 690.625 715.625 718.75 750 718.75H937.5V656.25H750V343.75H937.5V281.25z" />
    <glyph glyph-name="document"
      unicode="&#xEA35;"
      horiz-adv-x="1000" d="M803.125 709.375L584.375 928.125A28.4375 28.4375 0 0 1 562.5 937.5H250A62.5 62.5 0 0 1 187.5 875V125A62.5 62.5 0 0 1 250 62.5H750A62.5 62.5 0 0 1 812.5 125V687.5A28.4375 28.4375 0 0 1 803.125 709.375zM562.5 862.5L737.5 687.5H562.5zM750 125H250V875H500V687.5A62.5 62.5 0 0 1 562.5 625H750zM343.75 312.5H656.25V250H343.75zM343.75 500H656.25V437.5H343.75z" />
    <glyph glyph-name="document-add"
      unicode="&#xEA36;"
      horiz-adv-x="1000" d="M803.125 709.375L584.375 928.125A28.4375 28.4375 0 0 1 562.5 937.5H250A62.5 62.5 0 0 1 187.5 875V125A62.5 62.5 0 0 1 250 62.5H750A62.5 62.5 0 0 1 812.5 125V687.5A28.4375 28.4375 0 0 1 803.125 709.375zM562.5 862.5L737.5 687.5H562.5zM750 125H250V875H500V687.5A62.5 62.5 0 0 1 562.5 625H750zM656.25 406.25H531.25V531.25H468.75V406.25H343.75V343.75H468.75V218.75H531.25V343.75H656.25V406.25z" />
    <glyph glyph-name="document-audio"
      unicode="&#xEA37;"
      horiz-adv-x="1000" d="M390.625 437.5C381.25 437.5 375 431.25 375 421.875V328.125C375 318.75 381.25 312.5 390.625 312.5H487.5L600 193.75C603.125 190.6249999999999 606.25 190.6249999999999 609.375 187.5C618.75 187.5 625 193.75 625 203.125V546.875C625 553.125 621.875 559.375 615.625 562.5C609.375 565.625 603.125 562.5 600 559.375L487.5 437.5H390.625zM803.125 709.375L584.375 928.125C578.125 934.375 571.875 937.5 562.5 937.5H250C215.625 937.5 187.5 909.375 187.5 875V125C187.5 90.625 215.625 62.5 250 62.5H750C784.375 62.5 812.5 90.625 812.5 125V687.5C812.5 696.875 809.375 703.125 803.125 709.375zM562.5 862.5L737.5 687.5H562.5V862.5zM750 125H250V875H500V687.5C500 653.125 528.125 625 562.5 625H750V125z" />
    <glyph glyph-name="document-blank"
      unicode="&#xEA38;"
      horiz-adv-x="1000" d="M803.125 709.375L584.375 928.125C578.125 934.375 571.875 937.5 562.5 937.5H250C215.625 937.5 187.5 909.375 187.5 875V125C187.5 90.625 215.625 62.5 250 62.5H750C784.375 62.5 812.5 90.625 812.5 125V687.5C812.5 696.875 809.375 703.125 803.125 709.375zM562.5 862.5L737.5 687.5H562.5V862.5zM750 125H250V875H500V687.5C500 653.125 528.125 625 562.5 625H750V125z" />
    <glyph glyph-name="document-code"
      unicode="&#xEA39;"
      horiz-adv-x="1000" d="M465.625 459.375L421.875 500L315.625 375L421.875 250L465.625 290.625L393.7500000000001 375zM606.25 375L534.3749999999999 290.625L578.1249999999999 250L684.3749999999999 375L578.1249999999999 500L534.3749999999999 459.375zM534.375 290.625zM803.125 709.375L584.375 928.125C578.125 934.375 571.875 937.5 562.5 937.5H250C215.625 937.5 187.5 909.375 187.5 875V125C187.5 90.625 215.625 62.5 250 62.5H750C784.375 62.5 812.5 90.625 812.5 125V687.5C812.5 696.875 809.375 703.125 803.125 709.375zM562.5 862.5L737.5 687.5H562.5V862.5zM750 125H250V875H500V687.5C500 653.125 528.125 625 562.5 625H750V125z" />
    <glyph glyph-name="document-sketch"
      unicode="&#xEA3A;"
      horiz-adv-x="1000" d="M803.125 709.375L584.375 928.125C578.125 934.375 571.875 937.5 562.5 937.5H250C215.625 937.5 187.5 909.375 187.5 875V125C187.5 90.625 215.625 62.5 250 62.5H750C784.375 62.5 812.5 90.625 812.5 125V687.5C812.5 696.875 809.375 703.125 803.125 709.375zM562.5 862.5L737.5 687.5H562.5V862.5zM750 125H250V875H500V687.5C500 653.125 528.125 625 562.5 625H750V125zM315.625 437.5L503.1250000000001 206.25L684.3750000000001 437.5L593.7500000000001 546.875H412.5000000000001L315.625 437.5zM562.5 481.25L603.125 434.375L503.1250000000001 306.2499999999999L400 434.375L440.6250000000001 481.25H562.5z" />
    <glyph glyph-name="document-tasks"
      unicode="&#xEA3B;"
      horiz-adv-x="1000" d="M803.125 709.375L584.375 928.125A28.4375 28.4375 0 0 1 562.5 937.5H250A62.5 62.5 0 0 1 187.5 875V125A62.5 62.5 0 0 1 250 62.5H750A62.5 62.5 0 0 1 812.5 125V687.5A28.4375 28.4375 0 0 1 803.125 709.375zM562.5 862.5L737.5 687.5H562.5zM750 125H250V875H500V687.5A62.5 62.5 0 0 1 562.5 625H750zM437.5 306.875L356.5625 387.8125L312.5 343.75L437.5 218.75L687.5 468.75L643.4375 512.8125L437.5 306.875z" />
    <glyph glyph-name="document-video"
      unicode="&#xEA3C;"
      horiz-adv-x="1000" d="M803.125 709.375L584.375 928.125C578.125 934.375 571.875 937.5 562.5 937.5H250C215.625 937.5 187.5 909.375 187.5 875V125C187.5 90.625 215.625 62.5 250 62.5H750C784.375 62.5 812.5 90.625 812.5 125V687.5C812.5 696.875 809.375 703.125 803.125 709.375zM562.5 862.5L737.5 687.5H562.5V862.5zM750 125H250V875H500V687.5C500 653.125 528.125 625 562.5 625H750V125zM562.5 500H312.5V250H562.5V331.25L687.5 256.2500000000001V500L562.5 425V500zM500 312.5H375V437.5H500V312.5z" />
    <glyph glyph-name="download"
      unicode="&#xEA3D;"
      horiz-adv-x="1000" d="M812.5 531.25L768.4375 575.3125L531.25 338.4375V937.5H468.75V338.4375L231.5625 575.3125L187.5 531.25L500 218.75L812.5 531.25zM812.5 250V125H187.5V250H125V125A62.5 62.5 0 0 1 187.5 62.5H812.5A62.5 62.5 0 0 1 875 125V250z" />
    <glyph glyph-name="edit"
      unicode="&#xEA3E;"
      horiz-adv-x="1000" d="M62.5 156.25H937.5V93.75H62.5zM794.0625 718.75A62.5 62.5 0 0 1 794.0625 807.1875L682.1875 919.0625A62.5 62.5 0 0 1 593.75 919.0625L125 450.3125V250H325.3125zM637.8125 875L750 762.8125L656.25 669.0625L544.0625 781.25zM187.5 312.5V424.6875L500 737.1875L612.1875 625L299.6875 312.5z" />
    <glyph glyph-name="email"
      unicode="&#xEA3F;"
      horiz-adv-x="1000" d="M875 812.5H125A62.5 62.5 0 0 1 62.5 750V250A62.5 62.5 0 0 1 125 187.5H875A62.5 62.5 0 0 1 937.5 250V750A62.5 62.5 0 0 1 875 812.5zM806.25 750L500 538.125L193.75 750zM125 250V721.5625L482.1875 474.375A31.25 31.25 0 0 1 517.8125 474.375L875 721.5625V250z" />
    <glyph glyph-name="export"
      unicode="&#xEA40;"
      horiz-adv-x="1000" d="M812.5 250V125H187.5V250H125V125A62.5 62.5 0 0 1 187.5 62.5H812.5A62.5 62.5 0 0 1 875 125V250zM187.5 625L231.5625 581.25L468.75 817.8125V218.75H531.25V817.8125L768.4375 581.25L812.5 625L500 937.5L187.5 625z" />
    <glyph glyph-name="face-activated"
      unicode="&#xEA41;"
      horiz-adv-x="1000" d="M500 937.5A437.5 437.5 0 1 1 937.5 500A437.5 437.5 0 0 1 500 937.5zM500 125A375 375 0 1 0 875 500A375 375 0 0 0 500 125zM359.375 656.25A78.125 78.125 0 1 1 437.5 578.125A77.5 77.5 0 0 1 359.375 656.25zM640.625 656.25A78.125 78.125 0 1 1 718.75 578.125A77.5 77.5 0 0 1 640.625 656.25zM281.25 375A254.0625000000001 254.0625000000001 0 0 1 718.75 375z" />
    <glyph glyph-name="face-dissatisfied"
      unicode="&#xEA42;"
      horiz-adv-x="1000" d="M500 937.5A437.5 437.5 0 1 1 937.5 500A437.5 437.5 0 0 1 500 937.5zM500 125A375 375 0 1 0 875 500A375 375 0 0 0 500 125zM359.375 656.25A78.125 78.125 0 1 1 437.5 578.125A78.125 78.125 0 0 1 359.375 656.25zM640.625 656.25A78.125 78.125 0 1 1 718.75 578.125A78.125 78.125 0 0 1 640.625 656.25zM500 406.25A250 250 0 0 1 285.9375 284.6875L339.375 253.4375A187.5 187.5 0 0 0 660.625 253.4375L714.0625 284.6875A250 250 0 0 1 500 406.25z" />
    <glyph glyph-name="face-dizzy"
      unicode="&#xEA43;"
      horiz-adv-x="1000" d="M500 937.5A437.5 437.5 0 1 1 937.5 500A437.5 437.5 0 0 1 500 937.5zM500 125A375 375 0 1 0 875 500A375 375 0 0 0 500 125zM762.8125 656.25L718.75 700.3125L656.25 637.8125L593.75 700.3125L549.6875 656.25L612.1875 593.75L549.6875 531.25L593.75 487.1875L656.25 549.6875L718.75 487.1875L762.8125 531.25L700.3125 593.75L762.8125 656.25zM450.3125 656.25L406.25 700.3125L343.75 637.8125L281.25 700.3125L237.1875 656.25L299.6875 593.75L237.1875 531.25L281.25 487.1875L343.75 549.6875L406.25 487.1875L450.3125 531.25L387.8125 593.75L450.3125 656.25zM500 406.25A93.75 93.75 0 1 1 593.75 312.5A93.75 93.75 0 0 1 500 406.25z" />
    <glyph glyph-name="face-neutral"
      unicode="&#xEA44;"
      horiz-adv-x="1000" d="M500 937.5A437.5 437.5 0 1 1 937.5 500A437.5 437.5 0 0 1 500 937.5zM500 125A375 375 0 1 0 875 500A375 375 0 0 0 500 125zM359.375 656.25A78.125 78.125 0 1 1 437.5 578.125A78.125 78.125 0 0 1 359.375 656.25zM640.625 656.25A78.125 78.125 0 1 1 718.75 578.125A78.125 78.125 0 0 1 640.625 656.25zM312.5 375H687.5V312.5H312.5z" />
    <glyph glyph-name="face-pending"
      unicode="&#xEA45;"
      horiz-adv-x="1000" d="M500 937.5A437.5 437.5 0 1 1 937.5 500A437.5 437.5 0 0 1 500 937.5zM500 125A375 375 0 1 0 875 500A375 375 0 0 0 500 125zM359.375 656.25A78.125 78.125 0 1 1 437.5 578.125A77.5 77.5 0 0 1 359.375 656.25zM640.625 656.25A78.125 78.125 0 1 1 718.75 578.125A77.5 77.5 0 0 1 640.625 656.25z" />
    <glyph glyph-name="face-satisfied"
      unicode="&#xEA46;"
      horiz-adv-x="1000" d="M500 937.5A437.5 437.5 0 1 1 937.5 500A437.5 437.5 0 0 1 500 937.5zM500 125A375 375 0 1 0 875 500A375 375 0 0 0 500 125zM359.375 656.25A78.125 78.125 0 1 1 437.5 578.125A77.5 77.5 0 0 1 359.375 656.25zM640.625 656.25A78.125 78.125 0 1 1 718.75 578.125A77.5 77.5 0 0 1 640.625 656.25zM500 250A250 250 0 0 1 714.0625 371.5625L660.625 402.8125A187.5 187.5 0 0 0 339.3750000000001 402.8125L285.9375000000001 371.5625A250 250 0 0 1 500 250z" />
    <glyph glyph-name="face-wink"
      unicode="&#xEA47;"
      horiz-adv-x="1000" d="M500 937.5A437.5 437.5 0 1 1 937.5 500A437.5 437.5 0 0 1 500 937.5zM500 125A375 375 0 1 0 875 500A375 375 0 0 0 500 125zM640.625 656.25A78.125 78.125 0 1 1 718.75 578.125A78.125 78.125 0 0 1 640.625 656.25zM250 593.75H437.5V531.25H250zM500 250A250 250 0 0 1 714.0625 371.5625L660.625 402.8125A187.5 187.5 0 0 0 339.3750000000001 402.8125L285.9375000000001 371.5625A250 250 0 0 1 500 250z" />
    <glyph glyph-name="face-wow"
      unicode="&#xEA48;"
      horiz-adv-x="1000" d="M500 937.5C259.375 937.5 62.5 740.625 62.5 500S259.375 62.5 500 62.5S937.5 259.375 937.5 500S740.625 937.5 500 937.5zM500 125C293.75 125 125 293.75 125 500S293.75 875 500 875S875 706.25 875 500S706.25 125 500 125zM500 406.25C446.875 406.25 406.25 365.625 406.25 312.5S446.875 218.75 500 218.75S593.75 259.375 593.75 312.5S553.125 406.25 500 406.25zM359.375 656.25C315.625 656.25 281.25 621.875 281.25 578.125S315.625 500 359.375 500S437.5 534.375 437.5 578.125S403.125 656.25 359.375 656.25zM640.625 656.25C596.875 656.25 562.5 621.875 562.5 578.125S596.875 500 640.625 500S718.75 534.375 718.75 578.125S684.375 656.25 640.625 656.25z" />
    <glyph glyph-name="favorite"
      unicode="&#xEA49;"
      horiz-adv-x="1000" d="M701.5625 812.5A170.9375 170.9375 0 0 0 823.75 761.25A178.125 178.125 0 0 0 823.75 511.25L500 183.4375L176.25 511.25A178.125 178.125 0 0 0 176.25 761.25A171.25 171.25 0 0 0 420.625 761.25L500 680L579.0625 760.625A170 170 0 0 0 701.5625 812.5M701.5625 875A233.4375000000001 233.4375000000001 0 0 1 534.6875 805L500 770L465.3125 805A234.0625 234.0625 0 0 1 131.5625 805A241.25 241.25 0 0 1 131.5625 466.8749999999999L500 93.75L868.4375 466.8749999999999A241.25 241.25 0 0 1 868.4375 805A234.0625 234.0625 0 0 1 701.5625 875z" />
    <glyph glyph-name="favorite-filled"
      unicode="&#xEA4A;"
      horiz-adv-x="1000" d="M701.5625 875A233.4375000000001 233.4375000000001 0 0 1 534.6875 805L500 770L465.3125 805A234.0625 234.0625 0 0 1 131.5625 805A241.25 241.25 0 0 1 131.5625 466.8749999999999L500 93.75L868.4375 466.8749999999999A241.25 241.25 0 0 1 868.4375 805A234.0625 234.0625 0 0 1 701.5625 875z" />
    <glyph glyph-name="folder"
      unicode="&#xEA4B;"
      horiz-adv-x="1000" d="M349.0625 812.5L455.9375 705.9375L474.0625 687.5H875V187.5H125V812.5H349.0625M349.0625 875H125A62.5 62.5 0 0 1 62.5 812.5V187.5A62.5 62.5 0 0 1 125 125H875A62.5 62.5 0 0 1 937.5 187.5V687.5A62.5 62.5 0 0 1 875 750H500L393.4375 856.5625A62.5 62.5 0 0 1 349.0625 875z" />
    <glyph glyph-name="folder-add"
      unicode="&#xEA4C;"
      horiz-adv-x="1000" d="M812.5 375H750V250H625V187.5H750V62.5H812.5V187.5H937.5V250H812.5V375zM875 750H500L393.4375 856.5625A62.5 62.5 0 0 1 349.0625 875H125A62.5 62.5 0 0 1 62.5 812.5V187.5A62.5 62.5 0 0 1 125 125H500V187.5H125V812.5H349.0625L455.9375 705.9375L474.0625 687.5H875V468.75H937.5V687.5A62.5 62.5 0 0 1 875 750z" />
    <glyph glyph-name="forum"
      unicode="&#xEA4D;"
      horiz-adv-x="1000" d="M843.75 781.25H312.5A93.84375 93.84375 0 0 1 218.75 687.5V343.75A93.84375 93.84375 0 0 1 312.5 250H500V312.5H312.5A31.25 31.25 0 0 0 281.25 343.75V687.5A31.28125 31.28125 0 0 0 312.5 718.75H843.75A31.25 31.25 0 0 0 875 687.5V343.75A31.25 31.25 0 0 0 843.75 312.5H681.25L531.25 98.3125L582.46875 62.5L713.78125 250H843.75A93.84375 93.84375 0 0 1 937.5 343.75V687.5A93.84375 93.84375 0 0 1 843.75 781.25zM93.75 468.75H31.25V875A93.84375 93.84375 0 0 0 125 968.75H531.25V906.25H125A31.28125 31.28125 0 0 1 93.75 875z" />
    <glyph glyph-name="grid"
      unicode="&#xEA4E;"
      horiz-adv-x="1000" d="M375 875H187.5A62.5 62.5 0 0 1 125 812.5V625A62.5 62.5 0 0 1 187.5 562.5H375A62.5 62.5 0 0 1 437.5 625V812.5A62.5 62.5 0 0 1 375 875zM375 625H187.5V812.5H375zM812.5 875H625A62.5 62.5 0 0 1 562.5 812.5V625A62.5 62.5 0 0 1 625 562.5H812.5A62.5 62.5 0 0 1 875 625V812.5A62.5 62.5 0 0 1 812.5 875zM812.5 625H625V812.5H812.5zM375 437.5H187.5A62.5 62.5 0 0 1 125 375V187.5A62.5 62.5 0 0 1 187.5 125H375A62.5 62.5 0 0 1 437.5 187.5V375A62.5 62.5 0 0 1 375 437.5zM375 187.5H187.5V375H375zM812.5 437.5H625A62.5 62.5 0 0 1 562.5 375V187.5A62.5 62.5 0 0 1 625 125H812.5A62.5 62.5 0 0 1 875 187.5V375A62.5 62.5 0 0 1 812.5 437.5zM812.5 187.5H625V375H812.5z" />
    <glyph glyph-name="group"
      unicode="&#xEA4F;"
      horiz-adv-x="1000" d="M968.75 62.5H906.25V156.25A93.75 93.75 0 0 1 812.5 250H687.5A93.75 93.75 0 0 1 593.75 156.25V62.5H531.25V156.25A156.25 156.25 0 0 0 687.5 312.5H812.5A156.25 156.25 0 0 0 968.75 156.25zM750 625A93.75 93.75 0 1 0 656.25 531.25A93.75 93.75 0 0 0 750 625M750 687.5A156.25 156.25 0 1 1 906.25 531.25A156.25 156.25 0 0 1 750 687.5zM468.75 312.5H406.25V406.25A93.75 93.75 0 0 1 312.5 500H187.5A93.75 93.75 0 0 1 93.75 406.25V312.5H31.25V406.25A156.25 156.25 0 0 0 187.5 562.5H312.5A156.25 156.25 0 0 0 468.75 406.25zM250 875A93.75 93.75 0 1 0 156.25 781.25A93.75 93.75 0 0 0 250 875M250 937.5A156.25 156.25 0 1 1 406.25 781.25A156.25 156.25 0 0 1 250 937.5z" />
    <glyph glyph-name="help"
      unicode="&#xEA50;"
      horiz-adv-x="1000" d="M500 937.5A437.5 437.5 0 1 1 937.5 500A437.5 437.5 0 0 1 500 937.5zM500 125A375 375 0 1 0 875 500A375 375 0 0 0 500 125zM453.125 265.625A46.875 46.875 0 0 1 546.875 265.625A46.875 46.875 0 0 1 453.125 265.625M531.25 750H484.375A140.3125 140.3125 0 0 1 343.75 609.375V593.75H406.25V609.375A78.125 78.125 0 0 0 484.375 687.5H531.25A78.125 78.125 0 0 0 531.25 531.25H468.75V390.625H531.25V468.75A140.625 140.625 0 0 1 531.25 750z" />
    <glyph glyph-name="home"
      unicode="&#xEA51;"
      horiz-adv-x="1000" d="M519.0625 930.9375A31.25 31.25 0 0 1 480.3125 930.9375L31.25 580.625L70 531.25L125 574.375V187.5A62.5 62.5 0 0 1 187.5 125H812.5A62.5 62.5 0 0 1 875 187.5V574.0625L930 531.25L968.75 580.3125zM562.5 187.5H437.5V437.5H562.5zM625 187.5V437.5A62.5 62.5 0 0 1 562.5 500H437.5A62.5 62.5 0 0 1 375 437.5V187.5H187.5V623.125L500 866.5625L812.5 622.8125V187.5z" />
    <glyph glyph-name="image"
      unicode="&#xEA52;"
      horiz-adv-x="1000" d="M593.75 562.5A93.75 93.75 0 1 1 500 656.25A93.75 93.75 0 0 1 593.75 562.5zM593.75 687.5A31.25 31.25 0 1 0 562.5 656.25A31.25 31.25 0 0 0 593.75 687.5zM812.5 875H187.5A62.5 62.5 0 0 1 125 812.5V187.5A62.5 62.5 0 0 1 187.5 125H812.5A62.5 62.5 0 0 1 875 187.5V812.5A62.5 62.5 0 0 1 812.5 875zM812.5 187.5H187.5V375L343.75 531.25L518.4375 356.5625A62.5 62.5 0 0 1 606.5625 356.5625L656.25 406.25L812.5 250zM812.5 338.4375L700.3125 450.6249999999999A62.5 62.5 0 0 1 612.1875 450.6249999999999L562.5 400.9375L387.8125 575.625A62.5 62.5 0 0 1 299.6875 575.625L187.5 463.4375V812.5H812.5z" />
    <glyph glyph-name="information"
      unicode="&#xEA53;"
      horiz-adv-x="1000" d="M531.25 312.5V593.75H406.25V531.25H468.75V312.5H375V250H625V312.5H531.25zM500 781.25A46.875 46.875 0 1 1 546.875 734.375A46.875 46.875 0 0 1 500 781.25zM500 62.5A437.5 437.5 0 1 0 937.5 500A437.5 437.5 0 0 0 500 62.5zM500 875A375 375 0 1 1 875 500A375 375 0 0 1 500 875z" />
    <glyph glyph-name="jpg"
      unicode="&#xEA54;"
      horiz-adv-x="1000" d="M937.5 281.25H750A62.5 62.5 0 0 0 687.5 343.75V656.25A62.5 62.5 0 0 0 750 718.75H937.5V656.25H750V343.75H875V468.75H812.5V531.25H937.5zM437.5 281.25H375V718.75H562.5A62.5 62.5 0 0 0 625 656.25V500A62.5 62.5 0 0 0 562.5 437.5H437.5zM437.5 500H562.5V656.25H437.5zM250 281.25H125A62.5 62.5 0 0 0 62.5 343.75V406.25H125V343.75H250V718.75H312.5V343.75A62.5 62.5 0 0 0 250 281.25z" />
    <glyph glyph-name="launch"
      unicode="&#xEA55;"
      horiz-adv-x="1000" d="M812.5 125H187.5A62.5 62.5 0 0 0 125 187.5V812.5A62.5 62.5 0 0 0 187.5 875H468.75V812.5H187.5V187.5H812.5V468.75H875V187.5A62.5 62.5 0 0 0 812.5 125zM656.25 937.5V875H830.9375L562.5 606.5625L606.5625 562.5L875 830.9375V656.25H937.5V937.5H656.25z" />
    <glyph glyph-name="link"
      unicode="&#xEA56;"
      horiz-adv-x="1000" d="M914.0625 788.75A187.5 187.5 0 0 1 648.4375 788.75L692.8125 744.375A125 125 0 1 0 870.0000000000001 567.1875L620.0000000000001 317.1875A125 125 0 1 0 442.8125000000001 494.0624999999999L486.8750000000001 538.4375L442.8125000000001 582.8125L398.4375000000001 538.4375A187.5 187.5 0 0 1 398.4375000000001 272.8124999999999A187.5 187.5 0 0 1 531.25 218.75A187.5 187.5 0 0 1 664.6875 273.75L914.6875 523.75A187.5 187.5 0 0 1 914.0625 788.75zM130.9375 224.375A125 125 0 0 0 130.9375 401.5625L380.9375000000001 651.5625A125 125 0 0 0 558.125 651.5625A123.125 123.125 0 0 0 593.75 562.5A125 125 0 0 0 557.1875 473.4375L490.9375 406.25L535.3125000000001 361.875L601.5625000000001 428.125A187.5 187.5 0 0 1 335.6250000000001 694.0625L85.6250000000001 444.0625A187.5 187.5 0 0 1 85.6250000000001 178.1250000000001A187.5 187.5 0 0 1 218.75 125A189.6875 189.6875 0 0 1 352.5000000000001 180L308.1250000000001 224.375A125 125 0 0 0 130.9375 224.375z" />
    <glyph glyph-name="list-bulleted"
      unicode="&#xEA57;"
      horiz-adv-x="1000" d="M125 718.75A93.75 93.75 0 0 1 312.5 718.75A93.75 93.75 0 0 1 125 718.75M125 281.25A93.75 93.75 0 0 1 312.5 281.25A93.75 93.75 0 0 1 125 281.25M500 312.5H937.5V250H500zM500 750H937.5V687.5H500z" />
    <glyph glyph-name="list-numbered"
      unicode="&#xEA58;"
      horiz-adv-x="1000" d="M500 312.5H937.5V250H500zM500 750H937.5V687.5H500zM250 625V875H187.5V843.75H125V781.25H187.5V625H125V562.5H312.5V625H250zM312.5 125H125V250A62.5 62.5 0 0 0 187.5 312.5H250V375H125V437.5H250A62.5 62.5 0 0 0 312.5 375V312.5A62.5 62.5 0 0 0 250 250H187.5V187.5H312.5z" />
    <glyph glyph-name="location"
      unicode="&#xEA59;"
      horiz-adv-x="1000" d="M500 687.5A93.75 93.75 0 1 0 406.25 593.75A93.75 93.75 0 0 0 500 687.5M500 750A156.25 156.25 0 1 1 656.25 593.75A156.25 156.25 0 0 1 500 750zM500 875A277.5000000000001 277.5000000000001 0 0 0 781.25 602.8125A264.6875 264.6875 0 0 0 725.3125 440L500 110.625L276.5625 437.5A264.6875 264.6875 0 0 0 218.75 602.8125A277.5000000000001 277.5000000000001 0 0 0 500 875M500 937.5A339.375 339.375 0 0 1 156.25 602.8125A329.0625 329.0625 0 0 1 225 401.875L500 0L775 401.875A329.0625 329.0625 0 0 1 843.75 602.8125A339.375 339.375 0 0 1 500 937.5z" />
    <glyph glyph-name="locked"
      unicode="&#xEA5A;"
      horiz-adv-x="1000" d="M750 562.5H687.5V750A187.5 187.5 0 0 1 312.5 750V562.5H250A62.5 62.5 0 0 1 187.5 500V125A62.5 62.5 0 0 1 250 62.5H750A62.5 62.5 0 0 1 812.5 125V500A62.5 62.5 0 0 1 750 562.5zM375 750A125 125 0 0 0 625 750V562.5H375zM750 125H250V500H750z" />
    <glyph glyph-name="logo-facebook"
      unicode="&#xEA5B;"
      horiz-adv-x="1000" d="M833.4375 875H166.5625A41.875 41.875 0 0 1 125 833.4375V166.5625A41.875 41.875 0 0 1 166.5625 125H525.625V415H428.125V528.4375H525.625V611.875C525.625 708.75 584.6875 761.5625 671.5625000000001 761.5625C700.625 761.5625 729.6875 761.5625 758.75 757.1875V656.25H699.0625C651.875 656.25 642.8125 633.75 642.8125 600.9375V528.75H755.3125L740.6250000000001 415.3125H642.8125000000001V125H833.4375A41.875 41.875 0 0 1 875 166.5625V833.4375A41.875 41.875 0 0 1 833.4375 875z" />
    <glyph glyph-name="logo-github"
      unicode="&#xEA5C;"
      horiz-adv-x="1000" d="M500 937.5A437.5 437.5 0 0 1 361.5625 85C383.4375 80.9375 392.8125 94.375 392.8125 105.9375V180.3125C271.25 154.0625 245.625 239.0625 245.625 239.0625A115.9375 115.9375 0 0 1 195 303.125C155.3125 330 198.125 329.6875 198.125 329.6875A91.875 91.875 0 0 0 265 284.375A93.75 93.75 0 0 1 392.5 248.125A91.5625 91.5625 0 0 0 420.0000000000001 306.5625000000001C323.1250000000001 317.8125 220.9375 355.3125 220.9375 522.8125A168.75 168.75 0 0 0 265.9375000000001 640.3125A156.25 156.25 0 0 0 270.3125000000001 755.9375S306.8750000000001 767.8125 390.6250000000001 711.25A415.6250000000001 415.6250000000001 0 0 0 609.375 711.25C692.8125 767.8125 729.375 755.9375 729.375 755.9375A156.25 156.25 0 0 0 733.75 640.3125A168.75 168.75 0 0 0 778.75 522.8125C778.75 354.6875 676.5625000000001 317.8125 579.0625 306.875A104.0625 104.0625 0 0 0 608.75 225.9375V105.9375C608.75 91.5625 616.5625 80.6250000000001 640 85A437.5 437.5 0 0 1 500 937.5z" />
    <glyph glyph-name="logo-google"
      unicode="&#xEA5D;"
      horiz-adv-x="1000" d="M855.9375 568.125H506.5625V423.4375H707.8125000000001C689.0625 331.25 610.6250000000001 278.4375 506.5625 278.4375A221.5625 221.5625 0 0 0 506.5625 721.5625A218.75 218.75 0 0 0 644.6875000000001 672.1875L753.75 781.25A375 375 0 1 1 506.5625 125C694.0625 125 864.375 261.25 864.375 500A298.75 298.75 0 0 1 855.9375 568.125z" />
    <glyph glyph-name="logo-instagram"
      unicode="&#xEA5E;"
      horiz-adv-x="1000" d="M500 875C396.875 875 384.375 875 346.875 871.875C306.25 871.875 278.125 865.625 253.125 856.25C228.125 846.875 206.25 831.25 187.5 812.5C168.75 793.75 153.125 771.875 143.75 746.875C134.375 721.875 128.125 696.875 125 656.25V500C125 396.875 125 384.375 128.125 346.875C131.25 306.25 137.5 281.25 146.875 256.2500000000001C153.125 231.2500000000001 165.625 209.3750000000001 187.5 187.5000000000001S228.125 153.1250000000001 253.125 143.7500000000001C278.125 134.3750000000001 303.125 128.1250000000001 343.75 125.0000000000001H500C603.125 125.0000000000001 615.625 125.0000000000001 653.125 128.1250000000001C693.75 131.2500000000002 718.75 137.5000000000002 743.7499999999999 146.8750000000002C768.7499999999999 156.2500000000002 790.6249999999999 171.8750000000002 809.375 190.6250000000001C831.2499999999999 212.5000000000001 843.75 231.2500000000003 853.1249999999999 256.2500000000003C862.4999999999999 281.2500000000003 868.7499999999999 306.2500000000003 871.875 346.8750000000001C875 384.3750000000001 875 396.8750000000003 875 500.0000000000002C875 603.1250000000001 875 615.6250000000002 871.875 653.1250000000002C868.7499999999999 693.7500000000002 862.4999999999999 718.7500000000002 853.1249999999999 743.7500000000002C846.8749999999999 771.8750000000002 831.2499999999999 793.7500000000002 812.4999999999999 812.5000000000002C793.7499999999999 831.2500000000002 771.8749999999999 846.8750000000002 746.8749999999999 856.2500000000002C721.8749999999998 865.6250000000002 696.8749999999998 871.8750000000002 656.2499999999999 875.0000000000002H499.9999999999999M499.9999999999999 806.2500000000002C599.9999999999999 806.2500000000002 612.4999999999999 806.2500000000002 649.9999999999999 803.1250000000002C687.4999999999999 800.0000000000002 706.2499999999999 796.8750000000002 718.7499999999999 790.6250000000002C737.4999999999999 784.3750000000002 749.9999999999999 775.0000000000002 762.4999999999999 762.5000000000002C774.9999999999998 750.0000000000002 784.3749999999998 737.5000000000002 790.6249999999998 718.7500000000002C796.8749999999998 706.2500000000002 803.1249999999998 684.3750000000002 803.1249999999998 650.0000000000001C806.2499999999998 609.3750000000001 806.2499999999998 600.0000000000002 806.2499999999998 496.8750000000002C806.2499999999998 396.8750000000003 806.2499999999998 384.3750000000001 803.1249999999998 346.8750000000001C799.9999999999997 309.3750000000003 796.8749999999998 290.6250000000001 790.6249999999998 278.1250000000003C784.3749999999998 259.3750000000001 774.9999999999998 246.8750000000003 762.4999999999999 234.3750000000003C749.9999999999999 221.8750000000002 737.4999999999998 212.5000000000002 718.7499999999999 206.2500000000002C706.2499999999999 200.0000000000004 684.3749999999999 193.7500000000004 649.9999999999999 193.7500000000004C609.3749999999999 190.6250000000002 599.9999999999999 190.6250000000002 499.9999999999999 190.6250000000002S387.4999999999999 190.6250000000002 349.9999999999999 193.7500000000004C312.4999999999999 196.8750000000004 293.7499999999999 200.0000000000004 281.2499999999999 206.2500000000002C265.6249999999999 212.5000000000002 249.9999999999999 221.8750000000002 237.4999999999999 234.3750000000003C224.9999999999999 246.8750000000003 215.6249999999999 262.5000000000003 209.3749999999999 278.1250000000003C203.1249999999999 290.6250000000001 196.8749999999999 312.5000000000003 196.8749999999999 346.8750000000001C193.7499999999999 387.5000000000003 193.7499999999999 396.8750000000003 193.7499999999999 496.8750000000002C193.7499999999999 596.8750000000002 193.7499999999999 609.3750000000002 196.8749999999999 646.8750000000002C196.8749999999999 687.5000000000002 203.1249999999999 709.3750000000002 206.2499999999999 721.8750000000002C212.4999999999999 740.6250000000002 221.8749999999999 753.1250000000002 234.3749999999999 765.6250000000002C249.9999999999999 778.1250000000002 262.4999999999999 784.3750000000002 278.1249999999999 793.7500000000002C290.6249999999999 800.0000000000002 312.4999999999999 806.2500000000002 346.8749999999999 806.2500000000002H500M500 375C431.25 375 375 431.25 375 500S431.25 625 500 625S625 568.75 625 500S568.75 375 500 375M500 693.75C393.75 693.75 306.25 606.25 306.25 500S393.7500000000001 306.25 500 306.25C606.25 309.3750000000001 690.625 393.75 690.625 503.1250000000001C687.5 606.25 603.125 690.625 500 693.75M743.75 700C743.75 675 725 656.25 700.0000000000001 656.25C675 656.25 656.2500000000001 675 656.2500000000001 700C656.2500000000001 725 675.0000000000001 743.75 700.0000000000001 743.75C725.0000000000001 743.75 743.75 725 743.75 700" />
    <glyph glyph-name="logo-linkedin"
      unicode="&#xEA5F;"
      horiz-adv-x="1000" d="M819.0625 875H180.9375A55.625 55.625 0 0 1 125 820.9375V181.25A55.3125 55.3125 0 0 1 180.9375 127.1875H819.0625A55.3125 55.3125 0 0 1 875 181.25V820.9375A55.625 55.625 0 0 1 819.0625 875zM347.1875000000001 237.1875H237.1875V593.75H347.1875zM293.4375 643.4375A64.6875 64.6875 0 0 0 228.75 706.5625A62.5 62.5 0 0 0 293.4375 771.25A64.6875 64.6875 0 0 0 293.4375 642.1875zM765 239.375H656.25V413.7500000000001C656.25 455.3125 656.25 509.3750000000001 598.125 509.3750000000001S531.25 463.75 531.25 417.8125V241.25H420V593.75H523.7499999999999V546.875H525.9375A116.25 116.25 0 0 0 631.875 605C744.0625 605 764.9999999999999 530 764.9999999999999 434.6875z" />
    <glyph glyph-name="logo-slack"
      unicode="&#xEA60;"
      horiz-adv-x="1000" d="M282.5625 401.0625A78.78125 78.78125 0 1 0 203.8125 479.84375H282.5625zM322.28125 401.0625A78.78125 78.78125 0 0 0 479.84375 401.0625V203.78125A78.78125 78.78125 0 1 0 322.28125 203.78125zM401.0625 717.4375A78.78125 78.78125 0 1 0 479.84375 796.1875V717.4375zM401.0625 677.71875A78.78125 78.78125 0 0 0 401.0625 520.15625H203.75A78.78125 78.78125 0 1 0 203.75 677.71875zM717.4375 598.9375A78.78125 78.78125 0 1 0 796.1874999999999 520.15625H717.4375zM677.71875 598.9375A78.78125 78.78125 0 0 0 520.1562500000001 598.9375V796.25A78.78125 78.78125 0 1 0 677.7187500000001 796.25zM598.9375 282.5625A78.78125 78.78125 0 1 0 520.15625 203.8125000000001V282.5625zM598.9375 322.28125A78.78125 78.78125 0 0 0 598.9375 479.8437499999999H796.21875A78.78125 78.78125 0 1 0 796.21875 322.2812499999999z" />
    <glyph glyph-name="logo-twitter"
      unicode="&#xEA61;"
      horiz-adv-x="1000" d="M372.5 220.625A398.75 398.75 0 0 1 773.75 621.875V640.3125A293.7500000000001 293.7500000000001 0 0 1 843.75 713.125A290.9375 290.9375 0 0 0 762.8125 690.9375A142.5 142.5 0 0 1 825.3125 769.0625A277.8125 277.8125 0 0 0 735.9375 734.6875A141.25 141.25 0 0 1 495.3125000000001 606.25A399.6875 399.6875 0 0 0 204.6875 753.4375A140.9375 140.9375 0 0 1 248.4375000000001 565.9375A139.6875 139.6875 0 0 0 185.9375 583.4375V581.875A141.5625 141.5625 0 0 1 296.875 442.8124999999999A141.5625 141.5625 0 0 0 234.375 440.3125A140.9375 140.9375 0 0 1 365 343.75A282.8125 282.8125 0 0 0 189.6875 281.25A305.3125 305.3125 0 0 0 156.25 284.0625A399.0625 399.0625 0 0 1 372.5 221.5625" />
    <glyph glyph-name="logo-youtube"
      unicode="&#xEA62;"
      horiz-adv-x="1000" d="M919.0625 710.625A109.375 109.375 0 0 1 841.875 787.8125C773.75 806.25 500 806.25 500 806.25S226.25 806.25 158.125 787.8125A109.375 109.375 0 0 1 80.9375 710.625A1129.0625 1129.0625 0 0 1 62.5 500A1129.0625 1129.0625 0 0 1 80.9375 289.3749999999999A109.375 109.375 0 0 1 158.125 212.1875C226.25 193.75 500 193.75 500 193.75S773.7499999999999 193.75 841.8749999999999 212.1875A109.375 109.375 0 0 1 919.0624999999998 289.3749999999999A1129.0625 1129.0625 0 0 1 937.5 500A1129.0625 1129.0625 0 0 1 919.0625 710.625zM412.5 368.75V631.25L639.6875 500z" />
    <glyph glyph-name="maximize"
      unicode="&#xEA63;"
      horiz-adv-x="1000" d="M656.25 937.5V875H830.9375L531.25 575.625L575.3125 531.25L875 830.9375V656.25H937.5V937.5H656.25zM468.75 424.375L424.6875 468.75L125 169.0625V343.75H62.5V62.5H343.75V125H169.0625L468.75 424.375z" />
    <glyph glyph-name="media-library"
      unicode="&#xEA64;"
      horiz-adv-x="1000" d="M875 771.875C875 793.75 856.25 812.5 834.375 812.5H165.625C143.75 812.5 125 793.75 125 771.875V750H875V771.875zM812.5 896.875C812.5 918.75 793.75 937.5 771.875 937.5H228.125C206.25 937.5 187.5 918.75 187.5 896.875V875H812.5V896.875zM881.25 687.5H118.75C87.5 687.5 62.5 659.375 62.5 625V125C62.5 90.625 87.5 62.5 115.625 62.5H881.25C912.5 62.5 937.5 90.625 937.5 125V625C937.5 659.375 912.5 687.5 881.25 687.5zM875 125H125V625H875V125zM406.25 218.75C409.375 218.75 409.375 218.75 412.5 221.875L659.375 365.6250000000001C662.5000000000001 365.6250000000001 662.5000000000001 368.7500000000001 665.625 371.8750000000001C668.7500000000001 378.125 665.625 387.5000000000001 659.375 390.6250000000001L412.5000000000001 534.3750000000001C412.5000000000001 531.2500000000001 409.3750000000001 531.2500000000001 406.2500000000001 531.2500000000001C400.0000000000001 531.2500000000001 393.7500000000001 525.0000000000001 393.7500000000001 518.7500000000001V231.2500000000003C393.7500000000001 225.0000000000002 400 218.7500000000002 406.2500000000001 218.7500000000002z" />
    <glyph glyph-name="menu"
      unicode="&#xEA65;"
      horiz-adv-x="1000" d="M125 250H875V187.5H125zM125 625H875V562.5H125zM125 437.5H875V375H125zM125 812.5H875V750H125z" />
    <glyph glyph-name="microphone"
      unicode="&#xEA66;"
      horiz-adv-x="1000" d="M718.75 562.5V468.75A218.75 218.75 0 0 0 281.25 468.75V562.5H218.75V468.75A281.25 281.25 0 0 1 468.75 189.3750000000001V125H343.75V62.5H656.25V125H531.25V189.375A281.25 281.25 0 0 1 781.25 468.75V562.5zM500 312.5A156.25 156.25 0 0 1 656.25 468.75V781.25A156.25 156.25 0 0 1 343.75 781.25V468.75A156.25 156.25 0 0 1 500 312.5zM406.25 781.25A93.75 93.75 0 0 0 593.75 781.25V468.75A93.75 93.75 0 0 0 406.25 468.75z" />
    <glyph glyph-name="microphone-filled"
      unicode="&#xEA67;"
      horiz-adv-x="1000" d="M718.75 562.5V468.75A218.75 218.75 0 0 0 281.25 468.75V562.5H218.75V468.75A281.25 281.25 0 0 1 468.75 189.3750000000001V125H343.75V62.5H656.25V125H531.25V189.375A281.25 281.25 0 0 1 781.25 468.75V562.5zM500 312.5A156.25 156.25 0 0 1 656.25 468.75V781.25A156.25 156.25 0 0 1 343.75 781.25V468.75A156.25 156.25 0 0 1 500 312.5z" />
    <glyph glyph-name="microphone-off"
      unicode="&#xEA68;"
      horiz-adv-x="1000" d="M286.875 419.6875A231.5625 231.5625 0 0 0 281.25 468.75V562.5H218.75V468.75A276.25 276.25 0 0 1 236.875 369.375zM406.25 531.25V781.25A93.75 93.75 0 0 0 593.75 781.25V726.5625L656.25 789.0625A156.25 156.25 0 0 1 343.75 781.25V531.25zM718.75 468.75A218.75 218.75 0 0 0 352.1875 308.125L396.5625 352.1875A156.25 156.25 0 0 1 656.25 468.75V611.875L937.5 893.125L893.4375 937.5L62.5 106.5625L106.5625 62.5L307.8125000000001 263.75A278.4375 278.4375 0 0 1 468.75 189.375V125H343.75V62.5H656.25V125H531.25V189.375A281.25 281.25 0 0 1 781.25 468.75V562.5H718.75zM593.75 468.75A93.75 93.75 0 0 0 440.625 396.5625L593.75 549.375z" />
    <glyph glyph-name="microphone-off-filled"
      unicode="&#xEA69;"
      horiz-adv-x="1000" d="M718.75 468.75A218.75 218.75 0 0 0 352.1875 308.125L396.5625 352.1875A156.25 156.25 0 0 1 656.25 468.75V611.875L937.5 893.125L893.4375 937.5L62.5 106.5625L106.5625 62.5L307.8125000000001 263.75A278.4375 278.4375 0 0 1 468.75 189.375V125H343.75V62.5H656.25V125H531.25V189.375A281.25 281.25 0 0 1 781.25 468.75V562.5H718.75zM281.25 458.75V562.5H218.75V468.75A281.25 281.25 0 0 1 226.5625 403.4375zM648.75 825.625A156.25 156.25 0 0 1 343.75 781.25V520.625z" />
    <glyph glyph-name="mobile"
      unicode="&#xEA6A;"
      horiz-adv-x="1000" d="M687.5 875H312.5A62.5625 62.5625 0 0 1 250 812.5V125A62.5625 62.5625 0 0 1 312.5 62.5H687.5A62.59375 62.59375 0 0 1 750 125V812.5A62.5625 62.5625 0 0 1 687.5 875zM687.5 812.5V750H312.5V812.5zM312.5 125V687.5H687.5V125z" />
    <glyph glyph-name="move"
      unicode="&#xEA6B;"
      horiz-adv-x="1000" d="M781.25 656.25L737.1875 612.1875L817.8125 531.25H531.25V817.8125L612.1875 737.1875L656.25 781.25L500 937.5L343.75 781.25L387.8125 737.1875L468.75 817.8125V531.25H182.1875L262.8125 612.1875L218.75 656.25L62.5 500L218.75 343.75L262.8125 387.8125L182.1875 468.75H468.75V182.1875L387.8125 262.8124999999999L343.75 218.75L500 62.5L656.25 218.75L612.1875 262.8125L531.25 182.1875V468.75H817.8125L737.1875000000001 387.8125L781.25 343.75L937.5 500L781.25 656.25z" />
    <glyph glyph-name="new"
      unicode="&#xEA6C;"
      horiz-adv-x="1000" d="M875 531.25H575L787.5 743.75L743.75 787.5L531.25 575V875H468.75V575L256.25 787.5L212.5 743.75L425 531.25H125V468.75H425L212.5 256.25L256.25 212.5L468.75 425V125H531.25V425L743.75 212.5L787.5 256.25L575 468.75H875z" />
    <glyph glyph-name="notification"
      unicode="&#xEA6D;"
      horiz-adv-x="1000" d="M896.875 365.625L812.5 450V593.75A314.6875 314.6875 0 0 1 531.25 906.25V968.75H468.75V906.25A317.1875000000001 317.1875000000001 0 0 1 187.5 593.75V450L103.125 365.625A28.4375 28.4375 0 0 1 93.75 343.75V250A29.375 29.375 0 0 1 125 218.75H343.75A156.25 156.25 0 0 1 656.25 218.75H875A29.375 29.375 0 0 1 906.25 250V343.75A28.4375 28.4375 0 0 1 896.875 365.625zM500 125A93.75 93.75 0 0 0 406.25 218.75H593.75A93.75 93.75 0 0 0 500 125zM843.75 281.25H156.25V331.25L240.625 415.625A28.4375 28.4375 0 0 1 250 437.5V593.75A250 250 0 0 0 750 593.75V437.5A28.4375 28.4375 0 0 1 759.375 415.625L843.75 331.25z" />
    <glyph glyph-name="overflow-menu-horizontal"
      unicode="&#xEA6E;"
      horiz-adv-x="1000" d="M125 500A62.5 62.5 0 0 1 250 500A62.5 62.5 0 0 1 125 500M437.5 500A62.5 62.5 0 0 1 562.5 500A62.5 62.5 0 0 1 437.5 500M750 500A62.5 62.5 0 0 1 875 500A62.5 62.5 0 0 1 750 500" />
    <glyph glyph-name="overflow-menu-vertical"
      unicode="&#xEA6F;"
      horiz-adv-x="1000" d="M437.5 812.5A62.5 62.5 0 0 1 562.5 812.5A62.5 62.5 0 0 1 437.5 812.5M437.5 500A62.5 62.5 0 0 1 562.5 500A62.5 62.5 0 0 1 437.5 500M437.5 187.5A62.5 62.5 0 0 1 562.5 187.5A62.5 62.5 0 0 1 437.5 187.5" />
    <glyph glyph-name="page-first"
      unicode="&#xEA70;"
      horiz-adv-x="1000" d="M437.5 500L750 812.5L793.75 768.75L524.9999999999999 500L793.75 231.25L750 187.5zM250 875H312.5V125H250z" />
    <glyph glyph-name="page-last"
      unicode="&#xEA71;"
      horiz-adv-x="1000" d="M562.5 500L250 187.5L206.25 231.25L475 500L206.25 768.75L250 812.5zM687.5 875H750V125H687.5z" />
    <glyph glyph-name="paste"
      unicode="&#xEA72;"
      horiz-adv-x="1000" d="M812.5 375H557.1875L637.8124999999999 455.9375L593.75 500L437.5 343.75L593.75 187.5L637.8125 231.5625L557.1875 312.5H812.5V62.5H875V312.5A62.5 62.5 0 0 1 812.5 375zM740.9375 709.6875L522.1875 928.4375A31.25 31.25 0 0 1 500 937.5H187.5A62.5 62.5 0 0 1 125 875V125A62.5 62.5 0 0 1 187.5 62.5H437.5V125H187.5V875H437.5V687.5A62.5 62.5 0 0 1 500 625H687.5V562.5H750V687.5A31.25 31.25 0 0 1 740.9375 709.6875zM500 862.1875L674.6875 687.5H500z" />
    <glyph glyph-name="pause"
      unicode="&#xEA73;"
      horiz-adv-x="1000" d="M375 750V250H250V750H375M375 812.5H250A62.5 62.5 0 0 1 187.5 750V250A62.5 62.5 0 0 1 250 187.5H375A62.5 62.5 0 0 1 437.5 250V750A62.5 62.5 0 0 1 375 812.5zM750 750V250H625V750H750M750 812.5H625A62.5 62.5 0 0 1 562.5 750V250A62.5 62.5 0 0 1 625 187.5H750A62.5 62.5 0 0 1 812.5 250V750A62.5 62.5 0 0 1 750 812.5z" />
    <glyph glyph-name="pause-filled"
      unicode="&#xEA74;"
      horiz-adv-x="1000" d="M375 812.5H312.5A62.5 62.5 0 0 1 250 750V250A62.5 62.5 0 0 1 312.5 187.5H375A62.5 62.5 0 0 1 437.5 250V750A62.5 62.5 0 0 1 375 812.5zM687.5 812.5H625A62.5 62.5 0 0 1 562.5 750V250A62.5 62.5 0 0 1 625 187.5H687.5A62.5 62.5 0 0 1 750 250V750A62.5 62.5 0 0 1 687.5 812.5z" />
    <glyph glyph-name="pdf"
      unicode="&#xEA75;"
      horiz-adv-x="1000" d="M937.5 656.25V718.75H687.5V281.25H750V468.75H906.25V531.25H750V656.25H937.5zM250 718.75H62.5V281.25H125V437.5H250A62.5 62.5 0 0 1 312.5 500V656.25A62.5 62.5 0 0 1 250 718.75zM250 500H125V656.25H250zM500 281.25H375V718.75H500A125 125 0 0 0 625 593.75V406.25A125 125 0 0 0 500 281.25zM437.5 343.75H500A62.5 62.5 0 0 1 562.5 406.25V593.75A62.5 62.5 0 0 1 500 656.25H437.5z" />
    <glyph glyph-name="phone"
      unicode="&#xEA76;"
      horiz-adv-x="1000" d="M812.5 93.75H807.1875C193.125 129.0625 105.9375 647.1875 93.75 805.3125A93.75 93.75 0 0 0 180 906.25H352.1875A62.5 62.5 0 0 0 410.3125 866.875L457.8125 750A62.5 62.5 0 0 0 444.0625 682.5L377.5000000000001 615.3125A292.8125 292.8125 0 0 1 614.3750000000001 377.8125L682.1875000000001 445A62.5 62.5 0 0 0 750.0000000000002 457.8125L867.8125000000002 410.6249999999999A62.5 62.5 0 0 0 906.25 352.5V187.5A93.75 93.75 0 0 0 812.5 93.75zM187.5 843.75A31.25 31.25 0 0 1 156.25 812.5V810C170.625 625 262.8125 187.5 810.625 156.25A31.25 31.25 0 0 1 843.75 185.625V352.5L725.9375 399.6875000000001L636.25 310.625L621.25 312.5C349.375 346.5625 312.5 618.4375 312.5 621.25L310.625 636.25L399.375 725.9375L352.5 843.75z" />
    <glyph glyph-name="play"
      unicode="&#xEA77;"
      horiz-adv-x="1000" d="M218.75 125A31.25 31.25 0 0 0 187.5 156.25V843.75A31.25 31.25 0 0 0 203.125 870.9375A31.25 31.25 0 0 0 234.375 870.9375L828.125 527.1875A31.25 31.25 0 0 0 828.125 472.8125000000001L234.375 129.0625000000001A31.25 31.25 0 0 0 218.75 125zM250 789.6875V210.3125L750 500z" />
    <glyph glyph-name="play-filled-alt"
      unicode="&#xEA78;"
      horiz-adv-x="1000" d="M218.75 125A31.25 31.25 0 0 0 187.5 156.25V843.75A31.25 31.25 0 0 0 234.40625 870.78125L828.1562499999999 527.03125A31.25 31.25 0 0 0 828.1562499999999 472.96875L234.4062499999999 129.21875A31.1875 31.1875 0 0 0 218.75 125z" />
    <glyph glyph-name="ppt"
      unicode="&#xEA79;"
      horiz-adv-x="1000" d="M250 718.75H62.5V281.25H125V437.5H250C284.375 437.5 312.5 465.625 312.5 500V656.25C312.5 690.625 284.375 718.75 250 718.75zM250 500H125V656.25H250V500zM562.5 718.75H375V281.25H437.5V437.5H562.5C596.875 437.5 625 465.625 625 500V656.25C625 690.625 596.875 718.75 562.5 718.75zM562.5 500H437.5V656.25H562.5V500zM687.5 656.25H781.25V281.25H843.75V656.25H937.5V718.75H687.5z" />
    <glyph glyph-name="printer"
      unicode="&#xEA7A;"
      horiz-adv-x="1000" d="M875 718.75H781.25V906.25H218.75V718.75H125A62.5 62.5 0 0 1 62.5 656.25V343.75A62.5 62.5 0 0 1 125 281.25H218.75V93.75H781.25V281.25H875A62.5 62.5 0 0 1 937.5 343.75V656.25A62.5 62.5 0 0 1 875 718.75zM281.25 843.75H718.75V718.75H281.25zM718.75 156.25H281.25V468.75H718.75zM875 343.75H781.25V531.25H218.75V343.75H125V656.25H875z" />
    <glyph glyph-name="product"
      unicode="&#xEA7B;"
      horiz-adv-x="1000" d="M846.875 734.375L531.25 918.75C521.875 925 509.375 928.125 500 928.125S478.125 925 468.75 918.75L153.125 734.375C134.375 721.875 121.875 703.125 121.875 681.25V318.7500000000001C121.875 296.8750000000001 134.375 275.0000000000001 153.125 265.6250000000001L468.75 81.25C478.125 75.0000000000001 490.625 71.875 500 71.875S521.875 75.0000000000001 531.25 81.25L846.875 262.5000000000001C865.6250000000001 275 878.125 293.7500000000001 878.125 315.625V681.25C878.125 703.125 865.6250000000001 725 846.875 734.375zM815.625 318.75L500 137.5L184.375 318.75V681.25L500 862.5L815.625 681.25V318.7500000000001zM300 653.125L268.75 596.875L468.75 481.25V250H531.25V481.25L731.25 596.875L700 653.125L499.9999999999999 537.5z" />
    <glyph glyph-name="purchase"
      unicode="&#xEA7C;"
      horiz-adv-x="1000" d="M875 812.5H125A62.5 62.5 0 0 1 62.5 750V250A62.5 62.5 0 0 1 125 187.5H875A62.5 62.5 0 0 1 937.5 250V750A62.5 62.5 0 0 1 875 812.5zM875 750V656.25H125V750zM125 250V593.75H875V250zM187.5 375H500V312.5H187.5z" />
    <glyph glyph-name="radio-button"
      unicode="&#xEA7D;"
      horiz-adv-x="1000" d="M500 937.5A437.5 437.5 0 1 1 937.5 500A437.5 437.5 0 0 1 500 937.5zM500 125A375 375 0 1 0 875 500A375 375 0 0 0 500 125z" />
    <glyph glyph-name="radio-button-filled"
      unicode="&#xEA7E;"
      horiz-adv-x="1000" d="M500 937.5C259.375 937.5 62.5 740.625 62.5 500S259.375 62.5 500 62.5S937.5 259.375 937.5 500S740.625 937.5 500 937.5z" />
    <glyph glyph-name="recommend"
      unicode="&#xEA7F;"
      horiz-adv-x="1000" d="M500 937.5A281.25 281.25 0 0 1 312.5 447.1875000000001V62.5L500 187.5L687.5 62.5V447.1875A281.25 281.25 0 0 1 500 937.5zM625 179.375L534.6875 239.3749999999999L500 262.5L465.3125 239.375L375 179.375V404.6875A277.5000000000001 277.5000000000001 0 0 1 625 404.6875zM652.8125 500A218.75 218.75 0 1 0 718.75 656.25A218.75 218.75 0 0 0 652.8125 500z" />
    <glyph glyph-name="request-quote"
      unicode="&#xEA80;"
      horiz-adv-x="1000" d="M687.5 312.5V125H187.5V875H500V937.5H187.5A62.5 62.5 0 0 1 125 875V125A62.5 62.5 0 0 1 187.5 62.5H687.5A62.5 62.5 0 0 1 750 125V312.5zM923.125 820L820 923.125A50 50 0 0 1 750 923.125L312.5 485.625V312.5H485.3125000000001L922.8125 750A50 50 0 0 1 922.8125 820zM459.375 375H375V459.375L669.9999999999999 754.6875L754.6875 670zM798.75 714.0625L714.0624999999999 798.75L784.9999999999999 869.6875L869.6875 785z" />
    <glyph glyph-name="reset"
      unicode="&#xEA81;"
      horiz-adv-x="1000" d="M562.5 125A375 375 0 1 1 187.5 500V306.25L75 418.7500000000001L31.25 375L218.75 187.5L406.25 375L362.5 418.75L250 306.25V500A312.5 312.5 0 1 0 562.5 187.5z" />
    <glyph glyph-name="restart"
      unicode="&#xEA82;"
      horiz-adv-x="1000" d="M781.25 437.5A312.5 312.5 0 1 0 468.75 750H661.875L550 637.8125L593.75 593.75L781.25 781.25L593.75 968.75L550 924.6875L662.1875 812.5H468.75A375 375 0 1 1 843.75 437.5z" />
    <glyph glyph-name="rotate"
      unicode="&#xEA83;"
      horiz-adv-x="1000" d="M559.6875 161.875L570.625 99.375A403.125 403.125 0 0 1 703.125 147.5L671.875 201.5625A340.0000000000001 340.0000000000001 0 0 0 559.6875 161.875zM763.125 279.0625L812.5 239.0625A406.25 406.25 0 0 1 882.5000000000001 361.25L824.0625 382.5A343.75 343.75 0 0 0 763.125 279.0625zM296.875 148.4375A403.125 403.125 0 0 1 429.375 100.3125L440.3125 162.8125A340.0000000000001 340.0000000000001 0 0 0 328.125 203.4375zM177.1875 382.5L118.75 361.25A406.25 406.25 0 0 1 187.5 239.0625L197.5 247.1875L235.625 278.4375A343.75 343.75 0 0 0 175.9375 381.875zM906.25 500A401.5625000000001 401.5625000000001 0 0 1 881.25 638.75L822.8125 617.5A349.375 349.375 0 0 0 843.75 500zM812.5 760.9375A406.25 406.25 0 0 1 187.5 760.9375V875H125V625H375V687.5H212.8125A343.75 343.75 0 0 0 763.1249999999999 720.9375z" />
    <glyph glyph-name="rss"
      unicode="&#xEA84;"
      horiz-adv-x="1000" d="M250 437.5C146.875 437.5 62.5 353.125 62.5 250S146.875 62.5 250 62.5S437.5 146.875 437.5 250S353.125 437.5 250 437.5zM250 125C181.25 125 125 181.25 125 250S181.25 375 250 375S375 318.75 375 250S318.75 125 250 125zM937.5 250H875C875 593.75 593.75 875 250 875V937.5C628.125 937.5 937.5 628.125 937.5 250zM687.5 250H625C625 456.25 456.25 625 250 625V687.5C490.625 687.5 687.5 490.625 687.5 250z" />
    <glyph glyph-name="save"
      unicode="&#xEA85;"
      horiz-adv-x="1000" d="M865.9375 709.6875L709.6875 865.9375A31.25 31.25 0 0 1 687.5 875H187.5A62.5 62.5 0 0 1 125 812.5V187.5A62.5 62.5 0 0 1 187.5 125H812.5A62.5 62.5 0 0 1 875 187.5V687.5A31.25 31.25 0 0 1 865.9375 709.6875zM375 812.5H625V687.5H375zM625 187.5H375V437.5H625zM687.5 187.5V437.5A62.5 62.5 0 0 1 625 500H375A62.5 62.5 0 0 1 312.5 437.5V187.5H187.5V812.5H312.5V687.5A62.5 62.5 0 0 1 375 625H625A62.5 62.5 0 0 1 687.5 687.5V799.6875L812.5 674.6875V187.5z" />
    <glyph glyph-name="screen"
      unicode="&#xEA86;"
      horiz-adv-x="1000" d="M875 875H125A62.5 62.5 0 0 1 62.5 812.5V312.5A62.5 62.5 0 0 1 125 250H375V125H250V62.5H750V125H625V250H875A62.5 62.5 0 0 1 937.5 312.5V812.5A62.5 62.5 0 0 1 875 875zM562.5 125H437.5V250H562.5zM875 312.5H125V812.5H875z" />
    <glyph glyph-name="search"
      unicode="&#xEA87;"
      horiz-adv-x="1000" d="M937.5 106.5625L701.5625 343.75A343.75 343.75 0 1 1 656.25 298.4375L893.4375 62.5zM156.25 562.5A281.25 281.25 0 1 0 437.5 281.25A281.25 281.25 0 0 0 156.25 562.5z" />
    <glyph glyph-name="settings"
      unicode="&#xEA88;"
      horiz-adv-x="1000" d="M843.75 476.25V500V524.0625L903.75 576.5625A62.5 62.5 0 0 1 915.625 656.25L841.875 781.25A62.5 62.5 0 0 1 787.8125 812.5A62.5 62.5 0 0 1 767.8125 809.375L691.875 783.75A354.6875 354.6875 0 0 1 650.9375000000001 807.1875L635 885.9375A62.5 62.5 0 0 1 572.5 936.25H426.25A62.5 62.5 0 0 1 363.75 885.9375L347.8125 807.1875A358.75 358.75 0 0 1 306.5625 783.75L232.1875000000001 810.625A62.5 62.5 0 0 1 212.1875 812.5A62.5 62.5 0 0 1 158.125 781.25L84.375 656.25A62.5 62.5 0 0 1 97.1875 577.8125L156.25 523.75V475.9375L97.1875 423.4375A62.5 62.5 0 0 1 84.375 343.75L158.125 218.75A62.5 62.5 0 0 1 212.1875 187.5A62.5 62.5 0 0 1 232.1875000000001 190.625L308.1250000000001 216.25A354.6875 354.6875 0 0 1 349.0625000000001 192.8125L365.0000000000001 114.0625000000001A62.5 62.5 0 0 1 427.5000000000001 63.7500000000001H575.0000000000001A62.5 62.5 0 0 1 637.5000000000001 114.0625000000001L653.4375000000001 192.8125A358.75 358.75 0 0 1 694.6875000000001 216.25L770.3125000000002 190.625A62.5 62.5 0 0 1 790.3125000000002 187.5A62.5 62.5 0 0 1 844.3750000000002 218.75L915.6250000000002 343.75A62.5 62.5 0 0 1 902.8125000000002 422.1874999999999zM787.8125 250L680.625 286.25A276.875 276.875 0 0 0 595.9375 237.1875L573.75 125H426.25L404.0625 235.9375A292.5 292.5 0 0 0 319.6875 285L212.1875 250L138.4375 375L223.4375 450A278.125 278.125 0 0 0 223.4375 547.8125L138.4375 625L212.1875 750L319.375 713.75A276.875 276.875 0 0 0 404.0625 762.8125L426.25 875H573.75L595.9375 764.0625A292.5 292.5 0 0 0 680.3125 715L787.8125 750L861.5625 625L776.5625 550A278.125 278.125 0 0 0 776.5625 452.1875L861.5625 375zM500 312.5A187.5 187.5 0 1 0 687.5 500A185.625 185.625 0 0 0 500 312.5zM500 625A122.1875 122.1875 0 0 1 375 500A122.1875 122.1875 0 0 1 500 375A122.1875 122.1875 0 0 1 625 500A122.1875 122.1875 0 0 1 500 625z" />
    <glyph glyph-name="settings-adjust"
      unicode="&#xEA89;"
      horiz-adv-x="1000" d="M937.5 781.25H778.125A156.25 156.25 0 0 1 471.8749999999999 781.25H62.5V718.75H471.875A156.25 156.25 0 0 1 778.125 718.75H937.5zM625 656.25A93.75 93.75 0 1 0 718.75 750A93.75 93.75 0 0 0 625 656.25zM62.5 218.75H221.875A156.25 156.25 0 0 1 528.125 218.75H937.5V281.25H528.125A156.25 156.25 0 0 1 221.875 281.25H62.5zM281.25 250A93.75 93.75 0 1 0 375 156.25A93.75 93.75 0 0 0 281.25 250z" />
    <glyph glyph-name="share"
      unicode="&#xEA8A;"
      horiz-adv-x="1000" d="M718.75 375A156.25 156.25 0 0 1 597.1875 315.9375L368.75 458.75A139.375 139.375 0 0 1 368.75 541.25L597.1875 684.0625A156.25 156.25 0 1 1 562.5 781.25A149.6875 149.6875 0 0 1 568.75 740L340.3125 597.1875A156.25 156.25 0 1 1 340.3125 402.8125L568.75 260A149.6875 149.6875 0 0 1 562.5 218.75A156.25 156.25 0 1 1 718.75 375zM718.75 875A93.75 93.75 0 1 0 625 781.25A93.75 93.75 0 0 0 718.75 875zM218.75 406.25A93.75 93.75 0 1 0 312.5 500A93.75 93.75 0 0 0 218.75 406.25zM718.75 125A93.75 93.75 0 1 0 812.5 218.75A93.75 93.75 0 0 0 718.75 125z" />
    <glyph glyph-name="shopping-cart"
      unicode="&#xEA8B;"
      horiz-adv-x="1000" d="M250 125A62.5 62.5 0 0 1 375 125A62.5 62.5 0 0 1 250 125M687.5 125A62.5 62.5 0 0 1 812.5 125A62.5 62.5 0 0 1 687.5 125M875 781.25H181.875L156.25 912.5A31.25 31.25 0 0 1 125 937.5H0V875H99.375L218.75 275A31.25 31.25 0 0 1 250 250H812.5V312.5H275.625L250 437.5H812.5A31.25 31.25 0 0 1 843.75 461.875L906.25 743.125A31.25 31.25 0 0 1 875 781.25zM787.5 500H238.125L194.375 718.75H835.9375z" />
    <glyph glyph-name="sort-ascending"
      unicode="&#xEA8C;"
      horiz-adv-x="1000" d="M75 437.5H450V375H75zM200 625H450V562.5H200zM325 812.5H450V750H325zM925 315.625L881.2500000000001 359.375L762.5000000000001 243.75V875H700.0000000000001V243.75L584.3750000000001 359.375L540.6250000000001 315.625L731.2500000000002 125z" />
    <glyph glyph-name="sort-descending"
      unicode="&#xEA8D;"
      horiz-adv-x="1000" d="M75 812.5H450V750H75zM200 625H450V562.5H200zM325 437.5H450V375H325zM925 315.625L881.2500000000001 359.375L762.5000000000001 243.75V875H700.0000000000001V243.75L584.3750000000001 359.375L540.6250000000001 315.625L731.2500000000002 125z" />
    <glyph glyph-name="star"
      unicode="&#xEA8E;"
      horiz-adv-x="1000" d="M500 796.25L586.2499999999999 621.875L600.625 590.625L631.875 585.9375L824.375 558.125L687.5 423.75L664.0625 400.9375L669.6875 369.6875L702.5 178.125L530.3125 268.4375L500 281.25L470.9375 265.9375L298.75 176.875L330 368.4375L335.625 399.6875L312.5 423.75L174.375 559.6875L366.875 587.5L398.125 592.1875L412.5000000000001 623.4375L500 796.25M500 937.5L357.8125 649.375L40 603.4375L270 379.0625L215.625 62.5L500 211.875L784.375 62.5L730.0000000000001 379.0625000000001L960.0000000000002 603.125L642.1875000000001 649.3750000000001z" />
    <glyph glyph-name="star-filled"
      unicode="&#xEA8F;"
      horiz-adv-x="1000" d="M500 937.5L357.8125 649.375L40 603.4375L270 379.0625L215.625 62.5L500 211.875L784.375 62.5L730.0000000000001 379.0625000000001L960.0000000000002 603.125L642.1875000000001 649.3750000000001z" />
    <glyph glyph-name="star-half"
      unicode="&#xEA90;"
      horiz-adv-x="1000" d="M357.8125 649.375L40 603.125L270 379.0625000000001L215.625 62.5L500 211.875V937.5L357.8125 649.375z" />
    <glyph glyph-name="stop"
      unicode="&#xEA91;"
      horiz-adv-x="1000" d="M750 750V250H250V750H750M750 812.5H250A62.5 62.5 0 0 1 187.5 750V250A62.5 62.5 0 0 1 250 187.5H750A62.5 62.5 0 0 1 812.5 250V750A62.5 62.5 0 0 1 750 812.5z" />
    <glyph glyph-name="stop-filled-alt"
      unicode="&#xEA92;"
      horiz-adv-x="1000" d="M750 812.5H250A62.5 62.5 0 0 1 187.5 750V250A62.5 62.5 0 0 1 250 187.5H750A62.5 62.5 0 0 1 812.5 250V750A62.5 62.5 0 0 1 750 812.5z" />
    <glyph glyph-name="subtract"
      unicode="&#xEA93;"
      horiz-adv-x="1000" d="M218.75 531.25H781.25V468.75H218.75z" />
    <glyph glyph-name="subtract-alt"
      unicode="&#xEA94;"
      horiz-adv-x="1000" d="M500 875A375 375 0 1 0 125 500A375 375 0 0 0 500 875M500 937.5A437.5 437.5 0 1 1 937.5 500A437.5 437.5 0 0 1 500 937.5zM312.5 531.25H687.5V468.75H312.5z" />
    <glyph glyph-name="tablet"
      unicode="&#xEA95;"
      horiz-adv-x="1000" d="M593.75 250L593.75 187.5L406.25 187.5L406.25 250zM781.25 62.5H218.75A62.5625 62.5625 0 0 0 156.25 125V875A62.5625 62.5625 0 0 0 218.75 937.5H781.25A62.5625 62.5625 0 0 0 843.75 875V125A62.59375 62.59375 0 0 0 781.25 62.5zM218.75 875V125H781.25V875z" />
    <glyph glyph-name="tag"
      unicode="&#xEA96;"
      horiz-adv-x="1000" d="M578.75 62.5A93.75 93.75 0 0 0 512.5 90L90 512.1875A93.75 93.75 0 0 0 62.5 578.4375V843.75A93.75 93.75 0 0 0 156.25 937.5H421.5625A93.75 93.75 0 0 0 487.8125 910L909.9999999999998 487.8125A93.75 93.75 0 0 0 909.9999999999998 355L644.9999999999999 90A93.75 93.75 0 0 0 578.7499999999999 62.5zM156.25 875A31.25 31.25 0 0 1 125 843.75V578.4375A31.25 31.25 0 0 1 134.375 556.25L556.5625 134.0625A31.25 31.25 0 0 1 600.625 134.0625L865.9375 399.375A31.25 31.25 0 0 1 865.9375 443.4375L443.75 865.625A31.25 31.25 0 0 1 421.5625 875H156.25zM312.5 562.5A125 125 0 1 0 437.5 687.5A125 125 0 0 0 312.5 562.5zM312.5 750A62.5 62.5 0 1 1 375 687.5A62.5 62.5 0 0 1 312.5 750z" />
    <glyph glyph-name="text-align-center"
      unicode="&#xEA97;"
      horiz-adv-x="1000" d="M187.5 812.5H812.5V750H187.5zM312.5 625H687.5V562.5H312.5zM187.5 437.5H812.5V375H187.5zM312.5 250H687.5V187.5H312.5z" />
    <glyph glyph-name="text-align-justify"
      unicode="&#xEA98;"
      horiz-adv-x="1000" d="M187.5 812.5H812.5V750H187.5zM187.5 625H812.5V562.5H187.5zM187.5 250H812.5V187.5H187.5zM187.5 437.5H812.5V375H187.5z" />
    <glyph glyph-name="text-align-left"
      unicode="&#xEA99;"
      horiz-adv-x="1000" d="M375 812.5H812.5V750H375zM375 625H687.5V562.5H375zM375 437.5H812.5V375H375zM375 250H687.5V187.5H375zM187.5 875H250V125H187.5z" />
    <glyph glyph-name="text-align-right"
      unicode="&#xEA9A;"
      horiz-adv-x="1000" d="M187.5 812.5H625V750H187.5zM312.5 625H625V562.5H312.5zM187.5 437.5H625V375H187.5zM312.5 250H625V187.5H312.5zM750 875H812.5V125H750z" />
    <glyph glyph-name="text-bold"
      unicode="&#xEA9B;"
      horiz-adv-x="1000" d="M570.3125 218.75H281.25V781.25H546.875A164.0625 164.0625 0 0 0 671.875 510.9375A164.0625 164.0625 0 0 0 570.3125 218.75zM375 312.5H569.6875A70.3125 70.3125 0 1 1 569.6875 453.125H375zM375 546.875H546.875A70.3125 70.3125 0 1 1 546.875 687.5H375z" />
    <glyph glyph-name="text-clear-format"
      unicode="&#xEA9C;"
      horiz-adv-x="1000" d="M918.75 484.375L671.875 731.25C646.875 756.25 609.375 756.25 584.375 731.25L453.125 600L315.625 937.5H246.875L62.5 490.625H131.25L171.875 590.625H390.625L406.25 553.125L146.875 293.75C121.875 268.7499999999999 121.875 231.25 146.875 206.2499999999999L287.5 62.5H587.4999999999999L921.8749999999998 396.875C943.7499999999998 418.75 943.7499999999998 459.375 918.7499999999998 484.375zM196.875 653.125L278.125 846.875H284.375L365.625 653.125H196.875zM559.375 125H312.5L187.5 250L384.375 446.875L631.2500000000001 200L559.3750000000001 125zM678.125 243.75L431.25 490.6250000000001L625 687.5L875 440.625L678.125 243.75z" />
    <glyph glyph-name="text-fill"
      unicode="&#xEA9D;"
      horiz-adv-x="1000" d="M125 187.5H875V62.5H125zM812.5 545.625A31.25 31.25 0 0 1 804.6875 567.1875L536.5625 864.6875A34.0625 34.0625 0 0 1 531.25 868.75V937.5H468.75V843.75L135 539.375A31.25 31.25 0 0 1 133.125 495.3125000000001L400.9375000000001 197.8125000000001A31.25 31.25 0 0 1 422.5000000000001 187.5000000000001H424.0625000000001A31.25 31.25 0 0 1 445.3125000000001 195.6250000000001L750 475V343.75A31.25 31.25 0 0 1 812.5 343.75V544.6875V545.625zM426.5625 264.375L200.625 514.375L468.75 760.3125V625H531.25V777.1875L737.1875 548.125z" />
    <glyph glyph-name="text-indent-less"
      unicode="&#xEA9E;"
      horiz-adv-x="1000" d="M62.5 812.5H375V750H62.5zM156.25 625H375V562.5H156.25zM62.5 437.5H375V375H62.5zM156.25 250H375V187.5H156.25zM500 875H562.5V125H500zM879.6875 265.625L923.75 308.75L727.1875 500L923.75 691.25L879.6875 734.375L638.7499999999999 500L879.6875 265.625z" />
    <glyph glyph-name="text-indent-more"
      unicode="&#xEA9F;"
      horiz-adv-x="1000" d="M625 812.5H937.5V750H625zM625 625H843.75V562.5H625zM625 437.5H937.5V375H625zM625 250H843.75V187.5H625zM437.5 875H500V125H437.5zM120.3125 296.875L76.25 340L272.8125 531.25L76.25 722.5L120.3125 765.625L361.25 531.25L120.3125 296.875z" />
    <glyph glyph-name="text-insert"
      unicode="&#xEAA0;"
      horiz-adv-x="1000" d="M171.875 796.875H828.125V734.375H171.875zM171.875 265.625H828.125V203.125H171.875zM562.5 531.25H828.125V468.75H562.5zM343.75 625L300 581.25L350 531.25H171.875V468.75H350L300 418.75L343.75 375L468.75 500z" />
    <glyph glyph-name="text-italic"
      unicode="&#xEAA1;"
      horiz-adv-x="1000" d="M781.25 718.75V781.25H375V718.75H535.625L399.0625 281.25H218.75V218.75H625V281.25H464.375L600.9375 718.75H781.25z" />
    <glyph glyph-name="text-scale"
      unicode="&#xEAA2;"
      horiz-adv-x="1000" d="M937.5 843.75V750H687.5V187.5H593.75V750H343.75V843.75H937.5zM218.75 187.5V562.5H62.5V625H437.5V562.5H281.25V187.5H218.75z" />
    <glyph glyph-name="text-underline"
      unicode="&#xEAA3;"
      horiz-adv-x="1000" d="M125 187.5H875V125H125zM500 281.25A218.75 218.75 0 0 0 281.25 500V843.75H343.75V500A156.25 156.25 0 0 1 656.25 500V843.75H718.75V500A218.75 218.75 0 0 0 500 281.25z" />
    <glyph glyph-name="thumbs-down"
      unicode="&#xEAA4;"
      horiz-adv-x="1000" d="M836.25 343.75A113.75 113.75 0 0 1 937.5 468.75V656.25C937.5 770.3125 888.75 906.25 656.25 906.25H62.5V468.75H264.375L375 300.9375L406.25 102.8125V99.0624999999999A47.1875 47.1875 0 0 1 450.9375 62.5H500A100.625 100.625 0 0 1 523.75 62.5A113.75 113.75 0 0 1 625 187.5V343.75H812.5A100.625 100.625 0 0 1 836.25 343.75zM250 531.25H125V843.75H250zM875 468.75C875 423.75 857.5 406.25 812.5 406.25H562.5V187.5C562.5 142.5 545 125 500 125H464.6875000000001L460.3125 156.25L437.5 324.0625L312.5 509.375V843.75H656.25C805.625 843.75 875 784.0625 875 656.25z" />
    <glyph glyph-name="thumbs-up"
      unicode="&#xEAA5;"
      horiz-adv-x="1000" d="M812.5 656.25H625V812.5A113.75 113.75 0 0 1 523.7499999999999 937.5A100.625 100.625 0 0 1 500 937.5H450.9375A47.1875 47.1875 0 0 1 406.25 900.9375V897.1875L375 699.0625L264.375 531.25H62.5V93.75H656.25C888.75 93.75 937.5 229.6875 937.5 343.75V531.25A113.75 113.75 0 0 1 836.2499999999999 656.25A100.625 100.625 0 0 1 812.4999999999999 656.25zM250 156.25H125V468.75H250zM875 343.75C875 215.9375 805.625 156.25 656.25 156.25H312.5V490.625L437.5 675.9375L460.3125 843.75L464.6875000000001 875H500C545 875 562.5 857.5 562.5 812.5V593.75H812.5C857.5 593.75 875 576.25 875 531.25z" />
    <glyph glyph-name="time"
      unicode="&#xEAA6;"
      horiz-adv-x="1000" d="M500 62.5A437.5 437.5 0 1 0 937.5 500A437.5 437.5 0 0 0 500 62.5zM500 875A375 375 0 1 1 875 500A375 375 0 0 1 500 875zM643.4375 312.5L468.75 487.1875V781.25H531.25V513.125L687.5 356.5625L643.4375 312.5z" />
    <glyph glyph-name="tools"
      unicode="&#xEAA7;"
      horiz-adv-x="1000" d="M378.125 937.5A306.25 306.25 0 0 1 209.375 887.5L409.375 687.5A65.625 65.625 0 0 0 415.625 593.75A65.625 65.625 0 0 0 321.875 600L115.625 800A307.5 307.5 0 0 1 62.5 621.875A316.8750000000001 316.8750000000001 0 0 1 378.125 306.25A340.625 340.625 0 0 1 459.375 315.625L668.75 106.2500000000001A156.25 156.25 0 0 1 890.625 328.125L681.25 537.5A340.625 340.625 0 0 1 690.625 618.75A312.5 312.5 0 0 1 378.125 937.5zM628.125 621.875A237.8125 237.8125 0 0 0 618.75 556.25L609.375 521.875L634.375 496.8750000000001L843.75 287.5000000000001A90 90 0 0 0 871.875 221.875A85 85 0 0 0 843.75 156.25A90.625 90.625 0 0 0 712.5 156.25L503.1250000000001 365.625L478.125 390.625L443.7500000000001 381.25A237.8125 237.8125 0 0 0 378.1250000000001 371.875A258.4375 258.4375 0 0 0 200 443.75A238.4375000000001 238.4375000000001 0 0 0 125 621.875A260.3125 260.3125 0 0 0 134.375 690.625L271.875 553.125A129.375 129.375 0 0 1 456.25 546.875A129.375 129.375 0 0 1 450 731.25L312.5 868.75A201.5625 201.5625 0 0 0 375 878.125A258.4375 258.4375 0 0 0 553.125 806.25A265.3125 265.3125 0 0 0 628.1249999999999 621.875z" />
    <glyph glyph-name="translate"
      unicode="&#xEAA8;"
      horiz-adv-x="1000" d="M870.3125 93.75H937.5L750 562.5H676.5625L489.0624999999999 93.75H556.2499999999999L606.25 218.75H820.3125zM631.2500000000001 281.25L713.1250000000001 486.25L795.3125 281.25zM562.5 781.25V843.75H343.75V937.5H281.25V843.75H62.5V781.25H398.125A459.6874999999999 459.6874999999999 0 0 0 298.4375 588.125A421.875 421.875 0 0 0 226.875 718.75H161.25A514.6875 514.6875 0 0 1 255 544.375A526.2499999999999 526.2499999999999 0 0 0 93.75 437.5L117.1875 379.375A577.1875 577.1875 0 0 1 297.8125 500A528.75 528.75 0 0 1 477.8125 380L500 437.5A452.4999999999999 452.4999999999999 0 0 0 340 542.8125A551.25 551.25 0 0 1 462.5 781.25z" />
    <glyph glyph-name="trash-can"
      unicode="&#xEAA9;"
      horiz-adv-x="1000" d="M375 625H437.5V250H375zM562.5 625H625V250H562.5zM125 812.5V750H187.5V125A62.5 62.5 0 0 1 250 62.5H750A62.5 62.5 0 0 1 812.5 125V750H875V812.5zM250 125V750H750V125zM375 937.5H625V875H375z" />
    <glyph glyph-name="travel"
      unicode="&#xEAAA;"
      horiz-adv-x="1000" d="M875 687.5H687.5V812.5C687.5 846.875 659.375 875 625 875H375C340.625 875 312.5 846.875 312.5 812.5V687.5H125C90.625 687.5 62.5 659.375 62.5 625V187.5C62.5 153.125 90.625 125 125 125H875C909.375 125 937.5 153.125 937.5 187.5V625C937.5 659.375 909.375 687.5 875 687.5zM375 812.5H625V687.5H375V812.5zM750 625V187.5H250V625H750zM125 625H187.5V187.5H125V625zM875 187.5H812.5V625H875V187.5z" />
    <glyph glyph-name="unlocked"
      unicode="&#xEAAB;"
      horiz-adv-x="1000" d="M750 562.5H375V750A125 125 0 0 0 625 750H687.5A187.5 187.5 0 0 1 312.5 750V562.5H250A62.5 62.5 0 0 1 187.5 500V125A62.5 62.5 0 0 1 250 62.5H750A62.5 62.5 0 0 1 812.5 125V500A62.5 62.5 0 0 1 750 562.5zM750 125H250V500H750z" />
    <glyph glyph-name="upload"
      unicode="&#xEAAC;"
      horiz-adv-x="1000" d="M187.5 468.75L231.5625 424.6875L468.75 661.5625V62.5H531.25V661.5625L768.4375 424.6875L812.5 468.75L500 781.25L187.5 468.75zM187.5 750V875H812.5V750H875V875A62.5 62.5 0 0 1 812.5 937.5H187.5A62.5 62.5 0 0 1 125 875V750z" />
    <glyph glyph-name="user"
      unicode="&#xEAAD;"
      horiz-adv-x="1000" d="M500 875A156.25 156.25 0 1 0 343.75 718.75A156.25 156.25 0 0 0 500 875M500 937.5A218.75 218.75 0 1 1 718.75 718.75A218.75 218.75 0 0 1 500 937.5zM812.5 62.5H750V218.75A156.25 156.25 0 0 1 593.75 375H406.25A156.25 156.25 0 0 1 250 218.75V62.5H187.5V218.75A218.75 218.75 0 0 0 406.25 437.5H593.75A218.75 218.75 0 0 0 812.5 218.75z" />
    <glyph glyph-name="user-role"
      unicode="&#xEAAE;"
      horiz-adv-x="1000" d="M877.1875 343.75L687.5 531.25L877.1875 718.75L921.875 674.6875L776.875 531.25L921.875 387.8125L877.1875 343.75zM687.5 62.5H625V218.75A156.25 156.25 0 0 1 468.75 375H281.25A156.25 156.25 0 0 1 125 218.75V62.5H62.5V218.75A218.75 218.75 0 0 0 281.25 437.5H468.75A218.75 218.75 0 0 0 687.5 218.75zM375 875A156.25 156.25 0 1 0 218.75 718.75A156.25 156.25 0 0 0 375 875M375 937.5A218.75 218.75 0 1 1 593.75 718.75A218.75 218.75 0 0 1 375 937.5z" />
    <glyph glyph-name="video"
      unicode="&#xEAAF;"
      horiz-adv-x="1000" d="M656.25 187.5H125A62.5 62.5 0 0 0 62.5 250V750A62.5 62.5 0 0 0 125 812.5H656.25A62.5 62.5 0 0 0 718.75 750V623.125L888.125 744.0625A31.25 31.25 0 0 0 937.5 718.75V281.25A31.25 31.25 0 0 0 888.125 255.9375L718.75 376.875V250A62.5 62.5 0 0 0 656.25 187.5zM125 750V250H656.25V437.5A31.25 31.25 0 0 0 705.625 462.8125L875 341.875V658.125L705.625 537.1875A31.25 31.25 0 0 0 656.25 562.5V750z" />
    <glyph glyph-name="video-chat"
      unicode="&#xEAB0;"
      horiz-adv-x="1000" d="M250 625H531.25V562.5H250zM250 468.75H406.25V406.25H250zM656.25 187.5H125A62.5625 62.5625 0 0 0 62.5 250V750A62.5625 62.5625 0 0 0 125 812.5H656.25A62.5625 62.5625 0 0 0 718.75 750V623.21875L888.09375 744.15625A31.25 31.25 0 0 0 937.5 718.75V281.25A31.25 31.25 0 0 0 888.09375 255.8125L718.75 376.75V250A62.5625 62.5625 0 0 0 656.25 187.5zM125 750V249.96875L656.25 250V437.5A31.25 31.25 0 0 0 705.65625 462.9375L875 342V658L705.65625 537.0625A31.25 31.25 0 0 0 656.25 562.5V750z" />
    <glyph glyph-name="video-filled"
      unicode="&#xEAB1;"
      horiz-adv-x="1000" d="M656.25 187.5H125A62.5 62.5 0 0 0 62.5 250V750A62.5 62.5 0 0 0 125 812.5H656.25A62.5 62.5 0 0 0 718.75 750V623.125L888.125 744.0625A31.25 31.25 0 0 0 937.5 718.75V281.25A31.25 31.25 0 0 0 888.125 255.9375L718.75 376.875V250A62.5 62.5 0 0 0 656.25 187.5z" />
    <glyph glyph-name="view"
      unicode="&#xEAB2;"
      horiz-adv-x="1000" d="M966.875 510.625A521.5625 521.5625 0 0 1 500 843.75A521.5625 521.5625 0 0 1 33.125 510.625A31.25 31.25 0 0 1 33.125 489.375A521.5625 521.5625 0 0 1 500 156.25A521.5625 521.5625 0 0 1 966.8749999999998 489.375A31.25 31.25 0 0 1 966.8749999999998 510.625zM500 218.75C334.375 218.75 159.375 341.5625 95.9375 500C159.375 658.4375 334.375 781.25 500 781.25S840.625 658.4375 904.0625 500C840.625 341.5625 665.625 218.75 500 218.75zM500 687.5A187.5 187.5 0 1 1 687.5 500A187.5 187.5 0 0 1 500 687.5zM500 375A125 125 0 1 0 625 500A125 125 0 0 0 500 375z" />
    <glyph glyph-name="volume-down"
      unicode="&#xEAB3;"
      horiz-adv-x="1000" d="M656.25 531.25H968.75V468.75H656.25zM531.25 62.5C521.875 62.5 515.625 65.625 509.375 71.875L271.875 312.5H62.5C43.75 312.5 31.25 325 31.25 343.75V656.25C31.25 675 43.75 687.5 62.5 687.5H271.875L509.3749999999999 928.125C521.8749999999999 940.625 540.6249999999999 940.625 553.1249999999999 928.125C559.3749999999999 921.875 562.4999999999999 915.625 562.4999999999999 906.25V93.75C562.4999999999999 75 549.9999999999999 62.5 531.2499999999999 62.5zM93.75 375H284.375C293.75 375 300 371.875 306.25 365.625L500 168.75V831.25L306.25 634.375C300.0000000000001 628.125 293.75 625 284.3750000000001 625H93.75V375z" />
    <glyph glyph-name="volume-down-filled"
      unicode="&#xEAB4;"
      horiz-adv-x="1000" d="M531.25 62.5C521.875 62.5 515.625 65.625 509.375 71.875L271.875 312.5H62.5C43.75 312.5 31.25 325 31.25 343.75V656.25C31.25 675 43.75 687.5 62.5 687.5H271.875L509.3749999999999 928.125C521.8749999999999 940.625 540.6249999999999 940.625 553.1249999999999 928.125C559.3749999999999 921.875 562.4999999999999 912.5 562.4999999999999 906.25V93.75C562.4999999999999 75 549.9999999999999 62.5 531.2499999999999 62.5zM656.25 531.25H968.75V468.75H656.25z" />
    <glyph glyph-name="volume-max"
      unicode="&#xEAB5;"
      horiz-adv-x="1000" d="M478.125 928.125L240.625 687.5H31.25C12.5 687.5 0 675 0 656.25V343.75C0 325 12.5 312.5 31.25 312.5H240.625L478.125 71.875C484.375 65.625 490.6250000000001 62.5 500 62.5C518.75 62.5 531.25 75 531.25 93.75V906.25C531.25 915.625 528.125 921.875 521.875 928.125C509.375 940.625 490.625 940.625 478.1249999999999 928.125zM468.75 168.75L275 365.625C268.7500000000001 371.875 262.5 375 253.1250000000001 375H62.5V625H253.125C259.375 625 268.75 628.125 275 634.375L468.75 831.25V168.75zM628.125 659.375L584.3750000000001 615.625C609.3750000000001 584.375 625.0000000000001 543.75 625.0000000000001 500S609.3750000000001 415.625 584.3750000000001 384.375L628.125 340.6250000000001V343.75L631.2500000000001 340.625C640.6250000000001 353.1249999999999 650.0000000000001 368.7499999999999 659.375 384.3749999999999C678.1250000000001 418.75 687.5 456.2499999999999 687.5 499.9999999999999C687.5 559.3749999999999 665.625 615.6249999999999 628.125 659.3749999999999zM734.375 762.5L690.625 718.75C746.8750000000001 662.5 781.25 584.375 781.25 496.8749999999999C781.25 412.5 746.875 334.375 690.625 278.125L734.375 234.375C803.125 303.125 843.75 396.875 843.75 500S803.125 696.875 734.375 762.5zM837.5 868.75L793.7500000000001 825C881.25 743.75 937.5 628.125 937.5 500S881.25 256.25 793.75 175L837.4999999999999 131.2500000000001C937.5 221.875 1000 353.125 1000 500C1000 643.75 937.5 775 837.5 868.75z" />
    <glyph glyph-name="volume-max-filled"
      unicode="&#xEAB6;"
      horiz-adv-x="1000" d="M478.125 928.125L240.625 687.5H31.25C12.5 687.5 0 675 0 656.25V343.75C0 325 12.5 312.5 31.25 312.5H240.625L478.125 71.875C484.375 65.625 490.6250000000001 62.5 500 62.5C518.75 62.5 531.25 78.125 531.25 93.75V906.25C531.25 915.625 528.125 921.875 521.875 928.125C509.375 940.625 490.625 940.625 478.1249999999999 928.125zM628.125 659.375L584.3750000000001 615.625C609.3750000000001 584.375 625.0000000000001 543.75 625.0000000000001 500S609.3750000000001 415.625 584.3750000000001 384.375L628.125 340.6250000000001V343.75L631.2500000000001 340.625C640.6250000000001 353.1249999999999 650.0000000000001 368.7499999999999 659.375 384.3749999999999C678.1250000000001 418.75 687.5 456.2499999999999 687.5 499.9999999999999C687.5 559.3749999999999 665.625 615.6249999999999 628.125 659.3749999999999zM734.375 762.5L690.625 718.75C746.8750000000001 659.375 781.25 584.375 781.25 496.8749999999999C781.25 412.5 746.875 334.375 690.625 278.125L734.375 234.375C803.125 303.125 843.75 396.875 843.75 500S803.125 696.875 734.375 762.5zM837.5 868.75L793.7500000000001 825C881.25 743.75 937.5 628.125 937.5 500S881.25 256.25 793.75 175L837.4999999999999 131.2500000000001C937.5 221.875 1000 353.125 1000 500C1000 643.75 937.5 775 837.5 868.75z" />
    <glyph glyph-name="volume-mid"
      unicode="&#xEAB7;"
      horiz-adv-x="1000" d="M848.75 747.5L800.9375 707.1875A312.5 312.5 0 0 0 791.875 293.75L837.8125 250A375 375 0 0 1 848.75 746.25zM674.375 625A187.5 187.5 0 0 0 668.75 376.875L714.6874999999999 334.375A250 250 0 0 1 721.8749999999999 665.3125zM562.5 62.5A31.25 31.25 0 0 0 540.3125 71.875L302.1875 312.5H93.75A31.25 31.25 0 0 0 62.5 343.75V656.25A31.25 31.25 0 0 0 93.75 687.5H302.1875L540.3125 928.125A31.25 31.25 0 0 0 584.375 928.125A31.25 31.25 0 0 0 593.75 906.25V93.75A31.25 31.25 0 0 0 562.5 62.5zM125 375H315A31.25 31.25 0 0 0 337.1875 365.625L531.25 169.6875V830.3125L337.1875 634.375A31.25 31.25 0 0 0 315 625H125z" />
    <glyph glyph-name="volume-mid-filled"
      unicode="&#xEAB8;"
      horiz-adv-x="1000" d="M848.75 747.5L800.9375 707.1875A312.5 312.5 0 0 0 791.875 293.75L837.8125 250A375 375 0 0 1 848.75 746.25zM674.375 625A187.5 187.5 0 0 0 668.75 376.875L714.6874999999999 334.375A250 250 0 0 1 721.8749999999999 665.3125zM562.5 62.5A31.25 31.25 0 0 0 540.3125 71.875L302.1875 312.5H93.75A31.25 31.25 0 0 0 62.5 343.75V656.25A31.25 31.25 0 0 0 93.75 687.5H302.1875L540.3125 928.125A31.25 31.25 0 0 0 584.375 928.125A31.25 31.25 0 0 0 593.75 906.25V93.75A31.25 31.25 0 0 0 562.5 62.5z" />
    <glyph glyph-name="volume-min"
      unicode="&#xEAB9;"
      horiz-adv-x="1000" d="M784.375 666.875L736.875 625A187.5 187.5 0 0 0 731.25 376.875L777.1874999999999 334.375A250 250 0 0 1 784.3749999999999 665.3125zM625 62.5A31.25 31.25 0 0 0 602.8125 71.875L364.6875 312.5H156.25A31.25 31.25 0 0 0 125 343.75V656.25A31.25 31.25 0 0 0 156.25 687.5H364.6875L602.8125 928.125A31.25 31.25 0 0 0 646.875 928.125A31.25 31.25 0 0 0 656.25 906.25V93.75A31.25 31.25 0 0 0 625 62.5zM187.5 375H375A36.5625 36.5625 0 0 0 399.6875 365.625L593.75 169.6875V830.3125L399.6875 634.375A36.5625 36.5625 0 0 0 375 625H187.5z" />
    <glyph glyph-name="volume-min-filled"
      unicode="&#xEABA;"
      horiz-adv-x="1000" d="M784.375 666.875L736.875 625A187.5 187.5 0 0 0 731.25 376.875L777.1874999999999 334.375A250 250 0 0 1 784.3749999999999 665.3125zM625 62.5A31.25 31.25 0 0 0 602.8125 71.875L364.6875 312.5H156.25A31.25 31.25 0 0 0 125 343.75V656.25A31.25 31.25 0 0 0 156.25 687.5H364.6875L602.8125 928.125A31.25 31.25 0 0 0 646.875 928.125A31.25 31.25 0 0 0 656.25 906.25V93.75A31.25 31.25 0 0 0 625 62.5z" />
    <glyph glyph-name="volume-mute"
      unicode="&#xEABB;"
      horiz-adv-x="1000" d="M968.75 612.1875L924.6875 656.25L812.5 544.0625L700.3125 656.25L656.25 612.1875L768.4375 500L656.25 387.8125L700.3125 343.75L812.5 455.9375L924.6875 343.75L968.75 387.8125L856.5625 500L968.75 612.1875zM562.5 62.5A31.25 31.25 0 0 0 540.3125 71.875L302.1875 312.5H93.75A31.25 31.25 0 0 0 62.5 343.75V656.25A31.25 31.25 0 0 0 93.75 687.5H302.1875L540.3125 928.125A31.25 31.25 0 0 0 584.375 928.125A31.25 31.25 0 0 0 593.75 906.25V93.75A31.25 31.25 0 0 0 562.5 62.5zM125 375H312.5A36.5625 36.5625 0 0 0 337.1875 365.625L531.25 169.6875V830.3125L337.1875 634.375A36.5625 36.5625 0 0 0 312.5 625H125z" />
    <glyph glyph-name="volume-mute-filled"
      unicode="&#xEABC;"
      horiz-adv-x="1000" d="M968.75 612.1875L924.6875 656.25L812.5 544.0625L700.3125 656.25L656.25 612.1875L768.4375 500L656.25 387.8125L700.3125 343.75L812.5 455.9375L924.6875 343.75L968.75 387.8125L856.5625 500L968.75 612.1875zM562.5 62.5A31.25 31.25 0 0 0 540.3125 71.875L302.1875 312.5H93.75A31.25 31.25 0 0 0 62.5 343.75V656.25A31.25 31.25 0 0 0 93.75 687.5H302.1875L540.3125 928.125A31.25 31.25 0 0 0 584.375 928.125A31.25 31.25 0 0 0 593.75 906.25V93.75A31.25 31.25 0 0 0 562.5 62.5z" />
    <glyph glyph-name="volume-none"
      unicode="&#xEABD;"
      horiz-adv-x="1000" d="M734.375 62.5C725 62.5 718.75 65.625 712.5 71.875L475 312.5H265.625C246.875 312.5 234.375 325 234.375 343.75V656.25C234.375 675 246.875 687.5 265.625 687.5H475L712.4999999999999 928.125C724.9999999999999 940.625 743.7499999999999 940.625 756.2499999999999 928.125C762.4999999999999 921.875 765.6249999999999 915.625 765.6249999999999 906.25V93.75C765.6249999999999 75 753.1249999999999 62.5 734.3749999999999 62.5zM296.875 375H487.5C496.875 375 503.1250000000001 371.875 509.375 365.625L703.125 168.75V831.25L509.375 634.375C503.1250000000001 628.125 496.875 625 487.5000000000001 625H296.875V375z" />
    <glyph glyph-name="volume-none-filled"
      unicode="&#xEABE;"
      horiz-adv-x="1000" d="M734.375 62.5C725 62.5 718.75 65.625 712.5 71.875L475 312.5H265.625C246.875 312.5 234.375 325 234.375 343.75V656.25C234.375 675 246.875 687.5 265.625 687.5H475L712.4999999999999 928.125C724.9999999999999 940.625 743.7499999999999 940.625 756.2499999999999 928.125C762.4999999999999 921.875 765.6249999999999 915.625 765.6249999999999 906.25V93.75C765.6249999999999 75 753.1249999999999 62.5 734.3749999999999 62.5z" />
    <glyph glyph-name="volume-up"
      unicode="&#xEABF;"
      horiz-adv-x="1000" d="M843.75 343.75V468.75H968.75V531.25H843.75V656.25H781.25V531.25H656.25V468.75H781.25V343.75zM531.25 62.5C521.875 62.5 515.625 65.625 509.375 71.875L271.875 312.5H62.5C43.75 312.5 31.25 325 31.25 343.75V656.25C31.25 675 43.75 687.5 62.5 687.5H271.875L509.3749999999999 928.125C521.8749999999999 940.625 540.6249999999999 940.625 553.1249999999999 928.125C559.3749999999999 921.875 562.4999999999999 915.625 562.4999999999999 906.25V93.75C562.4999999999999 75 549.9999999999999 62.5 531.2499999999999 62.5zM93.75 375H284.375C293.75 375 300 371.875 306.25 365.625L500 168.75V831.25L306.25 634.375C300.0000000000001 628.125 293.75 625 284.3750000000001 625H93.75V375z" />
    <glyph glyph-name="volume-up-filled"
      unicode="&#xEAC0;"
      horiz-adv-x="1000" d="M531.25 62.5C521.875 62.5 515.625 65.625 509.375 71.875L271.875 312.5H62.5C43.75 312.5 31.25 325 31.25 343.75V656.25C31.25 675 43.75 687.5 62.5 687.5H271.875L509.3749999999999 928.125C521.8749999999999 940.625 540.6249999999999 940.625 553.1249999999999 928.125C559.3749999999999 921.875 562.4999999999999 912.5 562.4999999999999 906.25V93.75C562.4999999999999 75 549.9999999999999 62.5 531.2499999999999 62.5zM843.75 343.75V468.75H968.75V531.25H843.75V656.25H781.25V531.25H656.25V468.75H781.25V343.75z" />
    <glyph glyph-name="warning-alt"
      unicode="&#xEAC1;"
      horiz-adv-x="1000" d="M500 312.5A46.875 46.875 0 1 1 546.875 265.625A46.875 46.875 0 0 1 500 312.5zM468.75 656.25H531.25V375H468.75zM906.25 93.75H93.75A31.25 31.25 0 0 0 65.9375 139.375L472.1875 920.625A31.25 31.25 0 0 0 527.8125 920.625L934.0625 139.375A31.25 31.25 0 0 0 906.25 93.75zM145.3125 156.25H854.6875L500 838.4375z" />
    <glyph glyph-name="wikis"
      unicode="&#xEAC2;"
      horiz-adv-x="1000" d="M500 937.5A437.5 437.5 0 1 1 937.5 500A437.5 437.5 0 0 1 500 937.5zM875 531.25H687.5A758.1250000000001 758.1250000000001 0 0 1 600.3125 860.9375A375 375 0 0 0 875 531.25zM500 125A156.25 156.25 0 0 0 479.0625 125A682.8125 682.8125 0 0 0 375 468.75H625A682.8125 682.8125 0 0 0 521.875 125A156.25 156.25 0 0 0 500 125zM375 531.25A682.8125 682.8125 0 0 0 478.125 875A187.5 187.5 0 0 0 520 875A682.8125 682.8125 0 0 0 625 531.25zM398.75 860.9375A758.1250000000001 758.1250000000001 0 0 1 312.5 531.25H125A375 375 0 0 0 399.6875 860.9375zM126.5625 468.75H314.0625A758.1250000000001 758.1250000000001 0 0 1 400 139.0625A375 375 0 0 0 126.5625 468.75zM600.3125 139.0625A758.1250000000001 758.1250000000001 0 0 1 687.5 468.75H875A375 375 0 0 0 600.3125 139.0625z" />
    <glyph glyph-name="wireless"
      unicode="&#xEAC3;"
      horiz-adv-x="1000" d="M212.5 459.375L256.25 415.625C318.75 478.125 403.125 515.625 500 515.625S681.25 478.125 743.75 415.625L787.5 459.375C715.625 534.375 612.5 578.125 500 578.125S287.5 531.25 212.5 459.375zM500 796.875C328.125 796.875 171.875 728.125 59.375 612.5L103.125 568.75C203.125 671.875 343.75 734.375 500 734.375C656.25 734.375 796.875 671.875 896.875 568.75L940.6249999999998 612.5C828.125 725 671.875 796.875 500 796.875zM421.875 281.25A78.125 78.125 0 0 1 578.125 281.25A78.125 78.125 0 0 1 421.875 281.25" />
    <glyph glyph-name="xls"
      unicode="&#xEAC4;"
      horiz-adv-x="1000" d="M875 281.25H687.5V343.75H875V468.75H750A62.5625 62.5625 0 0 0 687.5 531.25V656.25A62.5625 62.5625 0 0 0 750 718.75H937.5V656.25H750V531.25H875A62.5625 62.5625 0 0 0 937.5 468.75V343.75A62.5625 62.5625 0 0 0 875 281.25zM437.5 343.75V718.75H375V281.25H625V343.75H437.5zM312.5 718.75H250L187.5 531.25L125 718.75H62.5L148.5 500L62.5 281.25H125L187.5 468.75L250 281.25H312.5L226.40625 500L312.5 718.75z" />
    <glyph glyph-name="zip"
      unicode="&#xEAC5;"
      horiz-adv-x="1000" d="M875 718.75H687.5V281.25H750V437.5H875A62.5 62.5 0 0 1 937.5 500V656.25A62.5 62.5 0 0 1 875 718.75zM875 500H750V656.25H875zM375 718.75V656.25H468.75V343.75H375V281.25H625V343.75H531.25V656.25H625V718.75H375zM312.5 718.75H62.5V656.25H250L62.5 343.75V281.25H312.5V343.75H125L312.5 656.25V718.75z" />
    <glyph glyph-name="zoom-in"
      unicode="&#xEAC6;"
      horiz-adv-x="1000" d="M593.75 593.75H468.75V718.75H406.25V593.75H281.25V531.25H406.25V406.25H468.75V531.25H593.75V593.75zM701.5625 343.75A339.6875 339.6875 0 0 1 781.25 562.5A343.75 343.75 0 1 1 437.5 218.75A339.6875 339.6875 0 0 1 656.25 298.4375L893.4375 62.5L937.5 106.5625zM437.5 281.25A281.25 281.25 0 1 0 718.75 562.5A281.25 281.25 0 0 0 437.5 281.25z" />
    <glyph glyph-name="zoom-out"
      unicode="&#xEAC7;"
      horiz-adv-x="1000" d="M281.25 593.75H593.75V531.25H281.25zM701.5625 343.75A339.6875 339.6875 0 0 1 781.25 562.5A343.75 343.75 0 1 1 437.5 218.75A339.6875 339.6875 0 0 1 656.25 298.4375L893.4375 62.5L937.5 106.5625zM437.5 281.25A281.25 281.25 0 1 0 718.75 562.5A281.25 281.25 0 0 0 437.5 281.25z" />
  </font>
</defs>
</svg>
